<svg width="1920" height="1289" viewBox="0 0 1920 1289" fill="none" xmlns="http://www.w3.org/2000/svg">
<path d="M-80.7936 1250.5C-4.65358 1274.14 84.337 1308.99 164.727 1281.67C275.87 1243.89 304.206 1112.05 292.968 1009.43C284.322 930.474 235.647 872.281 213.108 799.147C201.802 762.463 206.795 723.983 246.994 710.317C311.16 688.505 361.428 726.414 409.744 664.918C446.842 617.699 473.611 562.127 514.402 517.722C626.722 395.449 810.779 336.324 972.468 325.032C1049.79 319.632 1125.55 331.826 1154.98 411.449C1173.77 462.292 1161.17 515.538 1175.07 566.836C1205.32 678.472 1410.96 559.741 1484.91 560.136C1598.92 560.744 1671.95 692.596 1753.28 753.189C1815.37 799.444 1870.09 775.819 1919.2 720.539C2018.83 608.403 1991.8 487.399 1981.89 352.276" stroke="url(#paint0_linear_744_63)" stroke-width="3" stroke-linecap="round"/>
<path d="M-48.9382 767.302C-17.8794 797.687 36.2944 769.757 65.6832 750.172C94.3486 731.069 111.342 715.087 121.997 682.142C133.605 646.246 118.38 609.344 150.979 580.695C199.458 538.089 278.216 560.23 321.432 512.325C346.353 484.701 347.84 451.031 355.58 416.712C365.656 372.039 381.205 336.722 417.42 306.499C457.783 272.815 496.51 257.111 545.84 237.235C652.249 194.361 765.628 156.437 878.679 135.806C1002.92 113.135 1170.78 118.703 1274.33 203.783C1308.08 231.514 1308.5 267.375 1300.35 306.525C1297.01 322.58 1289.08 345.191 1312.77 351.199C1354.58 361.8 1410.57 344.65 1449.51 332.741C1530.12 308.096 1602.88 262.065 1545.41 172.81C1533.96 155.022 1427.91 71.2588 1458.23 49.1961C1479.54 33.6903 1519.93 25.7461 1542.18 21.8036C1610.95 9.61987 1683.97 6.3194 1751.93 25.8127C1820.95 45.6097 1851.01 90.5684 1869.83 154.709C1888.14 217.159 1910.39 300.937 1977.06 329.296C2001.37 339.638 1986.69 307.024 1983.47 295.335C1977.54 273.846 1971.26 252.448 1965.16 231.008" stroke="url(#paint1_linear_744_63)" stroke-width="3" stroke-linecap="round"/>
<path d="M-83.9583 1204.99C-46.2933 1217.89 -4.26593 1230.05 36.8301 1236.69C77.8844 1243.37 118.765 1244.22 157.253 1229.44C210.285 1209.57 242.26 1167.49 262.585 1118.24C283.828 1068.19 292.405 1014.24 289.608 963.126C282.901 887.133 237.124 830.356 216.334 759.465C211.589 739.601 211.001 719.855 217.672 703.115C224.583 686.175 237.466 672.984 259.254 665.398C325.861 642.369 379.774 675.897 431.83 616.761C456.485 593.207 481.227 569.315 502.689 550.349C520.118 528.069 536.057 506.591 554.803 487.933C660.441 373.651 833.407 319.248 987.123 308.955C1025.97 307.024 1065.26 307.633 1097.93 318.56C1133 328.75 1161.99 347.719 1172.53 380.074C1189.57 426.952 1171.58 472.283 1186.43 519.343C1201.91 571.04 1259.8 568.91 1321.8 553.909C1386.49 538.432 1456.57 510.367 1495.33 511.679C1606.75 513.395 1677.29 640.228 1755.01 701.025C1785.32 726.424 1814.12 736.595 1843.96 731.606C1871.35 725.575 1894.96 705.105 1917.91 678.386C2011.44 571.487 1985.61 456.238 1975.92 327.682" stroke="url(#paint2_linear_744_63)" stroke-width="3"/>
<path d="M-87.0216 1160.85C-49.7498 1174.79 -6.99953 1184.57 33.3998 1189.65C73.7169 1194.79 113.176 1194.64 150.008 1178.78C200.574 1157.96 229.741 1116.18 250.796 1068.16C273.659 1018.55 286.414 969.131 286.354 918.208C281.529 845.093 238.565 789.691 219.473 720.976C215.61 699.636 215.982 678.964 224.412 661.421C233.313 643.484 247.734 630.144 271.161 621.827C340.136 597.617 397.589 626.892 453.275 570.049C483.856 546.546 517.115 524.408 543.462 511.633C561.862 492.33 576.877 474.264 594.023 459.046C693.176 352.52 855.376 302.7 1001.36 293.378C1040.37 292.192 1080.66 291.745 1113.7 301.312C1151.49 309.429 1183.08 324.53 1189.57 349.649C1204.92 392.678 1181.69 430.327 1197.45 473.273C1213.28 520.971 1270.14 518.495 1329.77 504.152C1394.7 488.871 1464.95 462.28 1505.45 464.673C1614.35 467.466 1682.48 589.426 1756.7 650.423C1786.29 678.027 1814.7 692.578 1846.73 689.573C1873.94 684.517 1895.27 663.324 1916.67 637.499C2004.27 535.683 1979.61 426.019 1970.13 303.837" stroke="url(#paint3_linear_744_63)" stroke-width="3"/>
<path d="M-89.9847 1118.08C-53.0941 1133.03 -9.64296 1140.49 30.0809 1144.06C69.683 1147.71 107.764 1146.59 142.989 1129.68C191.166 1107.94 217.609 1066.46 239.372 1019.63C263.807 970.449 280.611 925.418 283.207 874.681C280.207 804.357 239.97 750.289 222.524 683.684C219.517 660.913 220.82 639.342 230.954 621.021C241.786 602.118 257.698 588.633 282.715 579.606C353.986 554.251 414.87 579.403 474.076 524.782C510.403 501.33 551.921 480.892 583.005 474.121C602.347 457.704 616.467 442.946 632.06 431.064C724.924 332.059 876.687 286.683 1015.16 278.302C1054.35 277.839 1095.6 276.367 1129.01 284.617C1169.42 290.724 1203.53 302.074 1206.1 320.175C1219.81 359.473 1191.49 389.672 1208.15 428.63C1224.32 472.45 1280.16 469.638 1337.5 455.934C1402.67 440.843 1473.09 415.68 1515.27 419.123C1621.72 422.959 1687.52 540.195 1758.34 601.384C1787.24 631.126 1815.27 649.925 1849.43 648.844C1876.46 644.733 1895.58 622.839 1915.46 597.882C1997.33 500.994 1973.8 396.745 1964.53 280.745" stroke="url(#paint4_linear_744_63)" stroke-width="3"/>
<path d="M-92.8448 1076.69C-56.3234 1092.61 -12.1934 1097.83 26.876 1099.94C65.7856 1102.14 102.531 1100.08 136.201 1082.16C182.062 1059.52 205.866 1018.33 228.316 972.649C254.273 923.886 275 883.109 280.168 832.55C278.936 764.93 241.341 712.154 225.49 647.593C223.311 623.435 225.516 600.994 237.302 581.919C250.004 562.081 267.361 548.455 293.917 538.741C367.414 512.277 431.622 533.435 494.237 480.966C536.131 457.564 585.648 438.772 621.321 437.817C641.576 424.195 654.828 412.643 668.918 403.992C755.69 312.273 897.341 271.202 1028.55 263.732C1067.9 263.97 1110.09 261.505 1143.84 268.478C1186.8 272.638 1223.36 280.355 1222.13 291.658C1234.24 327.341 1201.01 350.324 1218.53 385.418C1235.02 425.482 1289.89 422.345 1345 409.259C1410.4 394.352 1480.98 370.573 1524.8 375.033C1628.88 379.879 1692.41 492.538 1759.94 553.915C1788.17 585.728 1815.84 608.641 1852.05 609.424C1878.91 606.228 1895.89 583.656 1914.31 559.539C1990.62 467.425 1968.18 368.423 1959.11 258.41" stroke="url(#paint5_linear_744_63)" stroke-width="3"/>
<path d="M-95.6018 1036.66C-59.4378 1053.53 -14.6507 1056.59 23.7854 1057.27C62.0249 1058.08 97.4782 1055.11 129.642 1036.21C173.263 1012.7 194.514 971.79 217.627 927.224C245.058 878.863 269.581 842.202 277.238 791.817C277.717 726.814 242.679 675.287 228.371 612.705C226.994 587.205 230.072 563.921 243.456 544.117C257.967 523.373 276.722 509.611 304.768 499.233C380.418 471.695 447.842 488.988 513.757 438.601C561.038 415.247 618.297 398.049 658.411 402.723C679.549 391.806 691.961 383.355 704.596 377.832C785.473 293.163 917.338 256.258 1041.51 249.669C1081.03 250.585 1124.12 247.16 1158.21 252.898C1203.63 255.173 1242.56 259.374 1237.65 264.098C1248.22 296.284 1210.22 312.284 1228.58 343.639C1245.39 380.067 1299.3 376.616 1352.27 364.127C1417.89 349.399 1488.63 326.96 1534.03 332.403C1635.81 338.228 1697.16 446.458 1761.5 508.015C1789.08 541.832 1816.39 568.727 1854.6 571.314C1881.29 569.004 1896.2 545.774 1913.21 522.47C1984.13 434.977 1962.75 341.051 1953.88 236.833" stroke="url(#paint6_linear_744_63)" stroke-width="3"/>
<path d="M-98.2545 998.017C-62.4359 1015.8 -17.0137 1016.76 20.8103 1016.07C58.4019 1015.54 92.6062 1011.68 123.315 991.831C164.769 967.483 183.552 926.847 207.308 883.357C236.163 835.386 264.355 802.704 274.418 752.487C276.551 690.012 243.984 639.694 231.168 579.024C230.566 552.226 234.488 528.129 249.417 507.62C265.677 486 285.783 472.107 315.269 461.086C393 432.51 463.534 446.067 532.638 397.694C585.126 374.386 649.869 358.728 694.275 368.843C716.266 360.541 727.868 355.088 739.096 352.587C814.275 274.734 936.681 241.856 1054.06 236.119C1093.73 237.691 1137.69 233.336 1172.11 237.88C1219.91 238.334 1261.13 239.136 1252.66 237.502C1261.74 266.306 1219.14 275.556 1238.31 303.296C1255.42 336.211 1308.42 332.456 1359.31 320.546C1425.14 305.989 1496.04 284.845 1542.96 291.239C1642.53 298.009 1701.76 401.958 1763.02 463.69C1789.97 499.445 1816.94 530.188 1857.08 534.519C1883.61 533.065 1896.51 509.2 1912.15 486.682C1977.88 403.655 1957.52 314.636 1948.83 216.019" stroke="url(#paint7_linear_744_63)" stroke-width="3"/>
<path d="M-100.802 960.758C-65.3173 979.424 -19.2819 978.358 17.951 976.347C54.9173 974.513 87.9156 969.808 117.219 949.039C156.582 923.881 172.983 883.507 197.358 841.057C227.587 793.462 259.323 764.621 271.709 714.566C275.439 654.533 245.258 605.381 233.882 546.558C234.028 518.508 238.764 493.624 255.185 472.434C273.134 449.969 294.545 435.949 325.421 424.308C405.162 394.73 478.697 404.68 550.881 358.251C608.396 334.987 680.364 320.817 728.914 336.184C751.729 330.406 762.547 327.849 772.418 328.266C842.095 256.992 955.369 228.002 1066.18 223.089C1106 225.293 1150.8 220.042 1185.54 223.433C1235.64 222.129 1279.07 219.649 1267.17 211.875C1274.81 237.415 1227.76 240.148 1247.72 264.399C1265.12 293.92 1317.24 289.872 1366.12 278.52C1432.15 264.13 1503.2 244.236 1551.6 251.547C1649.03 259.23 1706.21 359.046 1764.5 420.947C1790.85 458.572 1817.49 493.032 1859.48 499.046C1885.86 498.418 1896.83 473.941 1911.14 452.182C1971.85 373.466 1952.48 289.185 1943.97 195.975" stroke="url(#paint8_linear_744_63)" stroke-width="3"/>
<path d="M-98.5924 941.228C-63.4289 960.745 -16.8022 957.727 19.8608 954.439C56.224 951.351 88.0596 945.827 116.008 924.173C153.355 898.235 167.458 858.113 192.43 816.666C223.986 769.433 259.138 744.296 273.764 694.397C279.033 636.719 251.152 588.692 241.165 531.649C242.033 502.391 247.555 476.749 265.413 454.903C284.991 431.623 307.66 417.481 339.877 405.241C421.555 374.697 497.985 381.169 573.138 336.614C635.5 313.394 714.435 300.658 766.981 321.089C790.591 317.746 800.654 317.98 809.215 321.211C873.587 256.282 978.056 231.041 1082.54 226.92C1122.5 229.735 1168.12 223.619 1203.16 225.899C1255.48 222.899 1301.04 217.255 1285.83 203.562C1292.08 225.953 1240.75 222.402 1261.45 243.288C1279.14 269.539 1330.41 265.207 1377.35 254.394C1443.59 240.164 1514.78 221.476 1564.6 229.672C1659.96 238.235 1715.17 334.065 1770.59 396.129C1796.36 435.558 1822.68 473.6 1866.46 481.238C1892.69 481.407 1901.8 456.339 1914.84 435.311C1970.71 360.753 1952.28 281.041 1943.95 193.045" stroke="url(#paint9_linear_744_63)" stroke-width="3"/>
<path d="M-95.128 927.119C-60.2742 947.456 -13.0781 942.559 23.0361 938.042C58.8186 933.746 89.5346 927.433 116.179 904.926C151.584 878.238 163.474 838.358 189.022 797.877C221.854 750.993 260.295 729.422 277.078 679.674C283.83 624.263 258.165 577.319 249.515 521.99C251.077 491.569 257.356 465.198 276.599 442.72C297.745 418.655 321.625 404.395 355.133 391.579C438.676 360.105 517.894 363.228 595.906 320.478C662.936 297.299 748.579 285.943 804.973 311.252C829.348 310.253 838.683 313.174 845.984 319.115C905.247 260.295 1001.24 238.664 1099.62 235.307C1139.73 238.709 1186.13 231.761 1221.47 232.971C1275.91 228.338 1323.53 219.647 1305.13 200.254C1310.05 219.614 1254.59 210.012 1276.02 227.658C1293.98 250.759 1344.42 246.155 1389.51 235.86C1455.93 221.784 1527.26 204.257 1578.45 213.305C1671.82 222.716 1725.14 314.708 1777.8 376.929C1803 418.094 1829.02 459.587 1874.53 468.788C1900.61 469.725 1907.92 444.087 1919.74 423.763C1970.94 353.209 1953.43 277.896 1945.27 194.921" stroke="url(#paint10_linear_744_63)" stroke-width="3"/>
<path d="M-91.7281 913.793C-57.1719 934.918 -9.4285 928.214 26.1582 922.515C61.3823 917.057 91.0218 909.985 116.411 886.66C149.95 859.249 159.713 819.603 185.814 780.05C219.873 733.502 261.478 715.361 280.334 665.757C288.511 612.526 264.976 566.623 257.612 512.942C259.842 481.404 266.848 454.33 287.423 431.245C310.076 406.425 335.121 392.052 369.87 378.682C455.208 346.314 537.105 346.217 617.866 305.202C689.384 282.063 781.477 272.035 841.571 302.032C866.682 303.287 875.317 308.792 881.405 317.339C935.758 264.393 1023.6 246.232 1116.12 243.611C1156.36 247.577 1203.51 239.829 1239.13 240.009C1295.63 233.806 1345.22 222.186 1323.76 197.312C1327.39 213.758 1267.96 198.338 1290.09 212.869C1308.31 232.941 1357.97 228.075 1401.26 218.278C1467.87 204.351 1539.33 187.94 1591.83 197.808C1683.3 208.033 1734.79 296.336 1784.79 358.707C1809.46 401.542 1835.18 446.352 1882.35 457.056C1908.29 458.731 1913.88 432.546 1924.51 412.9C1971.23 346.194 1954.61 275.111 1946.61 196.963" stroke="url(#paint11_linear_744_63)" stroke-width="3"/>
<path d="M-88.4177 901.168C-54.1473 923.05 -5.87845 914.611 29.2018 907.777C63.8899 901.204 92.496 893.404 116.682 869.293C148.428 841.189 156.149 801.767 182.781 763.105C218.019 716.879 262.659 702.029 283.506 652.564C293.051 601.426 271.561 556.522 265.432 504.424C268.303 471.812 276.007 444.065 297.86 420.397C321.96 394.852 348.123 380.37 384.064 366.469C471.123 333.242 555.593 330.054 638.993 290.705C714.819 267.604 813.104 258.85 876.749 293.349C902.566 296.768 910.531 304.754 915.455 315.801C965.092 268.493 1045.1 253.665 1132.01 251.748C1172.37 256.257 1220.24 247.74 1256.14 246.933C1314.61 239.223 1366.09 224.791 1341.68 194.656C1344.08 208.304 1280.84 187.299 1303.64 198.84C1322.12 216.004 1371.02 210.887 1412.59 201.568C1479.37 187.784 1550.96 172.444 1604.73 183.098C1694.36 194.106 1744.1 278.867 1791.55 341.382C1815.7 385.82 1841.14 433.815 1889.9 445.961C1915.71 448.344 1919.64 421.634 1929.14 402.638C1971.56 339.628 1955.78 272.605 1947.94 199.091" stroke="url(#paint12_linear_744_63)" stroke-width="3"/>
<path d="M-85.2113 889.19C-51.2148 911.797 -2.44237 901.696 32.1525 893.775C66.327 886.134 93.9428 877.636 116.974 852.772C147.003 824.003 152.768 784.796 179.908 746.988C216.276 701.071 263.825 689.375 286.58 640.043C297.437 590.91 277.906 546.965 272.959 496.383C276.445 462.742 284.818 434.349 307.895 410.122C333.382 383.883 360.617 369.297 397.699 354.886C486.409 320.837 573.344 314.686 659.272 276.934C739.227 253.869 843.445 246.337 910.493 285.149C936.987 290.641 944.308 301.004 948.118 314.448C993.237 272.544 1065.75 260.908 1147.26 259.667C1187.75 264.696 1236.31 255.443 1272.47 253.688C1332.83 244.534 1386.12 227.408 1358.9 192.231C1360.12 203.199 1293.23 176.842 1316.66 185.517C1335.38 199.895 1383.55 194.537 1423.48 185.677C1490.43 172.028 1562.14 157.715 1617.12 169.124C1704.99 180.881 1753.06 262.247 1798.07 324.901C1821.72 370.875 1846.88 421.922 1897.17 435.451C1922.85 438.512 1925.2 411.298 1933.61 392.926C1971.91 333.456 1956.94 270.324 1949.25 201.251" stroke="url(#paint13_linear_744_63)" stroke-width="3"/>
<path d="M-82.1243 877.802C-48.3898 901.103 0.864262 889.412 34.9949 880.45C68.6782 871.787 95.3468 862.622 117.275 837.037C145.661 807.633 149.554 768.631 177.181 731.64C214.629 686.018 264.961 677.34 289.54 628.135C301.651 580.92 283.994 537.89 280.179 488.759C284.252 454.134 293.265 425.124 317.514 400.362C344.328 373.46 372.587 358.774 410.761 343.876C501.049 309.039 590.342 300.056 678.689 263.83C762.592 240.8 872.485 234.436 942.789 277.374C969.93 284.849 976.636 297.486 979.378 313.222C1020.18 276.486 1085.52 267.903 1161.87 267.309C1202.48 272.835 1251.7 262.877 1288.11 260.218C1350.27 249.682 1405.3 229.978 1375.38 189.979C1375.47 198.383 1305.09 166.907 1329.14 172.842C1348.09 184.555 1395.57 178.966 1433.92 170.545C1501.03 157.027 1572.86 143.696 1628.99 155.825C1715.19 168.299 1761.65 246.419 1804.32 309.206C1827.49 356.649 1852.4 410.614 1904.15 425.465C1929.71 429.176 1930.53 401.481 1937.91 383.704C1972.27 327.621 1958.07 268.21 1950.52 203.384" stroke="url(#paint14_linear_744_63)" stroke-width="3"/>
<path d="M-79.1772 866.935C-45.6927 890.898 4.02111 877.69 37.7087 867.736C70.9231 858.097 96.6877 848.295 117.562 822.022C144.381 792.011 146.487 753.206 174.579 716.994C213.057 671.654 266.046 665.856 292.367 616.773C305.674 571.388 289.806 529.233 287.071 481.485C291.705 445.922 301.328 416.322 326.695 391.05C354.775 363.514 384.012 348.733 423.229 333.37C515.024 297.783 606.567 286.095 697.222 251.326C784.894 228.33 900.204 223.081 973.615 269.956C1001.37 279.324 1007.49 294.131 1009.22 312.055C1045.89 280.251 1104.38 274.584 1175.82 274.607C1216.54 280.606 1266.39 269.977 1303.04 266.453C1366.92 254.599 1423.61 232.435 1391.11 187.834C1390.12 193.79 1316.41 157.429 1341.05 160.747C1360.22 169.917 1407.03 164.108 1443.88 156.105C1511.15 142.712 1583.09 130.318 1640.33 143.135C1724.91 156.294 1769.84 231.315 1810.29 294.228C1833.01 343.074 1857.66 399.824 1910.81 415.938C1936.25 420.268 1935.63 392.113 1942.02 374.905C1972.61 322.055 1959.15 266.196 1951.73 205.424" stroke="url(#paint15_linear_744_63)" stroke-width="3"/>
<path d="M-76.3716 856.587C-43.1252 881.18 7.02632 866.527 40.2919 855.627C73.0599 845.06 97.9636 834.651 117.835 807.724C143.161 777.135 143.566 738.517 172.1 703.047C211.56 657.975 267.078 654.919 295.057 605.952C309.504 562.31 295.34 520.988 293.633 474.559C298.801 438.101 309.006 407.94 335.438 382.182C364.723 354.043 394.892 339.171 435.101 323.365C528.33 287.062 622.017 272.799 714.871 239.418C806.132 216.454 926.6 212.267 1002.97 262.892C1031.32 274.063 1036.88 290.936 1037.63 310.943C1070.38 283.837 1122.35 280.945 1189.1 281.555C1229.92 288.007 1280.38 276.737 1317.25 272.39C1382.78 259.281 1441.04 234.774 1406.1 185.79C1404.08 189.416 1327.19 148.402 1352.39 149.229C1371.77 155.977 1417.95 149.958 1453.37 142.354C1520.78 129.079 1592.83 117.578 1651.12 131.051C1734.18 144.86 1777.65 216.931 1815.97 279.965C1838.26 330.146 1862.68 389.549 1917.15 406.865C1942.48 411.785 1940.48 383.193 1945.92 366.526C1972.93 316.754 1960.18 264.278 1952.89 207.367" stroke="url(#paint16_linear_744_63)" stroke-width="3"/>
<path d="M-73.7058 846.758C-40.6855 871.949 9.88185 855.923 42.7467 844.126C75.0904 832.676 99.1763 821.691 118.095 794.142C142.003 763.004 140.792 724.563 169.746 689.799C210.138 644.982 268.059 644.531 297.613 595.673C313.144 553.688 300.598 513.157 299.867 467.979C305.542 430.672 316.3 399.979 343.743 373.759C374.174 345.046 405.228 330.088 446.38 313.862C540.971 276.88 636.694 260.17 731.636 228.107C826.306 205.174 951.674 201.995 1030.85 256.183C1059.76 269.065 1064.79 287.901 1064.62 309.888C1093.64 287.244 1139.42 286.989 1201.71 288.157C1242.64 295.038 1293.67 283.16 1330.75 278.031C1397.84 263.729 1457.61 236.997 1420.33 183.849C1417.34 185.261 1337.44 139.828 1363.16 138.288C1382.74 142.736 1428.32 136.518 1462.38 129.292C1529.93 116.13 1602.08 105.477 1661.37 119.572C1742.98 134.001 1785.06 203.268 1821.37 266.416C1843.24 317.866 1867.44 379.789 1923.17 398.246C1948.4 403.728 1945.09 374.719 1949.63 358.567C1973.23 311.72 1961.15 262.456 1953.99 209.212" stroke="url(#paint17_linear_744_63)" stroke-width="3"/>
<path d="M-71.0716 837.828C-38.2656 863.587 12.6957 846.261 45.1808 833.613C77.1228 821.327 100.434 809.796 118.45 781.657C141.014 750 138.272 711.727 167.625 677.631C208.9 633.056 269.097 635.072 300.144 586.319C316.7 545.902 305.687 506.12 305.881 462.129C312.037 424.017 323.318 392.818 351.72 366.161C383.235 336.906 415.127 321.866 457.172 305.241C553.055 267.615 650.706 248.589 747.626 217.775C845.526 194.87 975.535 192.646 1057.38 250.208C1086.81 264.713 1091.34 285.408 1090.3 309.27C1115.78 290.853 1155.69 293.095 1213.77 294.792C1254.8 302.079 1306.37 289.625 1343.65 283.756C1412.22 268.325 1473.4 239.484 1433.92 182.393C1430 181.707 1347.25 132.087 1373.47 128.306C1393.24 130.574 1438.26 124.167 1471.02 117.3C1538.71 104.246 1610.95 94.3953 1671.19 109.08C1751.42 124.095 1792.2 190.708 1826.59 253.964C1848.08 306.615 1872.06 370.926 1928.99 390.464C1954.11 396.476 1949.56 367.074 1953.26 351.41C1973.63 307.332 1962.19 261.112 1955.14 211.342" stroke="url(#paint18_linear_744_63)" stroke-width="3"/>
<path d="M-68.5526 829.507C-35.9489 855.802 15.3844 837.248 47.511 823.796C79.0736 810.721 101.653 798.675 118.817 769.98C140.112 737.832 135.925 699.717 165.653 666.252C207.763 621.905 270.109 626.252 302.565 577.596C320.09 538.66 310.524 499.587 311.592 456.715C318.202 417.844 329.977 386.168 359.284 359.098C391.824 329.33 424.507 314.214 467.396 297.212C564.497 258.978 663.97 237.764 762.757 208.129C863.707 185.251 998.099 183.93 1082.46 244.678C1112.39 260.714 1116.44 283.166 1114.58 308.797C1136.72 294.372 1171.1 298.973 1225.19 301.169C1266.31 308.84 1318.39 295.843 1355.87 289.274C1425.82 272.776 1488.35 241.945 1446.79 181.129C1442 178.463 1356.54 124.889 1383.25 118.991C1403.19 119.201 1447.67 112.616 1479.22 106.088C1547.03 93.134 1619.36 84.0421 1680.5 99.2837C1759.43 114.853 1798.96 178.958 1831.55 242.316C1852.67 296.102 1876.46 362.667 1934.51 383.227C1959.54 389.74 1953.81 359.966 1956.71 344.762C1974.04 303.3 1963.19 259.954 1956.25 213.465" stroke="url(#paint19_linear_744_63)" stroke-width="3"/>
<path d="M-66.1631 821.744C-33.7498 848.543 17.9336 828.833 49.7228 814.626C80.9283 800.808 102.82 788.277 119.181 759.058C139.283 726.448 133.735 688.483 163.817 655.611C206.712 611.479 271.08 618.019 304.862 569.456C323.299 531.914 315.095 493.506 316.986 451.689C324.022 412.102 336.263 379.978 366.421 352.519C399.925 322.268 433.353 307.08 477.035 289.724C575.284 250.918 676.47 227.644 777.016 199.119C880.836 176.267 1019.35 175.794 1106.07 239.542C1136.48 257.019 1140.08 281.123 1137.45 308.421C1156.45 297.752 1185.61 304.573 1235.96 307.238C1277.16 315.27 1329.72 301.761 1367.38 294.534C1438.65 277.032 1502.44 244.328 1458.91 180.007C1453.3 175.477 1365.31 118.183 1392.46 110.293C1412.57 108.566 1456.55 101.814 1486.95 95.604C1554.88 82.7451 1627.3 74.367 1689.27 90.1325C1766.98 106.222 1805.35 167.968 1836.24 231.423C1857.01 286.277 1880.61 354.963 1939.73 376.484C1964.67 383.469 1957.84 353.345 1959.98 338.574C1974.45 299.574 1964.16 258.933 1957.32 215.53" stroke="url(#paint20_linear_744_63)" stroke-width="3"/>
<path d="M-63.91 814.514C-31.6751 841.786 20.3363 820.993 51.8093 806.077C82.6801 791.563 103.926 778.577 119.535 748.867C138.518 715.824 131.695 677.999 162.109 645.683C205.74 601.752 272.004 610.348 307.029 561.872C326.32 525.636 319.393 487.853 322.054 447.023C329.492 406.767 342.168 374.222 373.124 346.399C407.532 315.696 441.658 300.439 486.085 282.751C585.408 243.41 688.201 218.205 790.395 190.721C896.905 167.892 1039.29 168.215 1128.23 234.773C1159.07 253.602 1162.26 279.255 1158.89 308.114C1174.95 300.967 1199.23 309.868 1246.06 312.974C1287.34 321.345 1340.36 307.355 1378.19 299.512C1450.69 281.068 1515.66 246.608 1470.3 179.002C1463.91 172.726 1373.54 111.944 1401.11 102.186C1421.38 98.6438 1464.88 91.7346 1494.21 85.8235C1562.25 73.0535 1634.75 65.3444 1697.51 81.6011C1774.08 98.1795 1811.35 157.713 1840.65 221.259C1861.1 277.113 1884.52 347.788 1944.63 370.21C1969.49 377.637 1961.62 347.185 1963.06 332.82C1974.84 296.127 1965.08 258.022 1958.34 217.513" stroke="url(#paint21_linear_744_63)" stroke-width="3"/>
<path d="M-61.7984 807.796C-29.7301 835.508 22.5876 813.705 53.7654 798.128C84.3239 782.964 104.968 769.553 119.875 739.385C137.814 705.938 129.801 668.244 160.524 636.448C204.841 592.704 272.875 603.218 309.06 554.823C329.148 519.807 323.413 482.606 326.793 442.698C334.604 401.816 347.688 368.879 379.388 340.716C414.639 309.591 449.417 294.271 494.538 276.273C594.865 236.431 699.157 209.426 802.888 182.911C911.909 160.105 1057.9 161.171 1148.91 230.352C1180.17 250.441 1182.96 277.54 1178.92 307.857C1192.23 303.995 1211.94 314.837 1255.5 318.354C1296.85 327.041 1350.29 312.604 1388.28 304.185C1461.92 284.863 1528 248.764 1480.92 178.092C1473.83 170.186 1381.23 106.15 1409.19 94.6496C1429.61 89.4131 1472.67 82.3573 1500.99 76.7249C1569.14 64.038 1641.71 56.9532 1705.21 73.6682C1780.71 90.7024 1816.96 148.172 1844.77 211.802C1864.92 268.59 1888.17 341.121 1949.21 364.383C1974 372.224 1965.16 341.466 1965.94 327.479C1975.21 292.939 1965.95 257.2 1959.3 219.391" stroke="url(#paint22_linear_744_63)" stroke-width="3"/>
<path d="M-59.8343 801.575C-27.9206 829.697 24.6813 806.955 55.5851 790.764C85.8537 774.996 105.938 761.192 120.195 730.599C137.164 696.777 128.046 659.204 159.057 627.89C204.011 584.32 273.687 596.615 310.95 548.295C331.778 514.411 327.149 477.751 331.197 438.699C339.355 397.237 352.816 363.935 385.208 335.457C421.242 303.939 456.624 288.56 502.39 270.275C603.649 229.969 709.332 201.291 814.491 175.678C925.842 152.892 1075.18 154.648 1168.11 226.264C1199.75 247.523 1202.18 275.964 1197.51 307.634C1208.27 306.822 1223.75 319.467 1264.27 323.366C1305.69 332.346 1359.52 317.493 1397.65 308.54C1472.36 288.403 1539.46 250.783 1490.8 177.264C1483.03 167.844 1388.38 100.787 1416.7 87.6689C1437.25 80.8595 1479.9 73.6677 1507.3 68.2942C1575.54 55.6843 1648.17 49.1791 1712.36 66.3197C1786.86 83.777 1822.17 139.33 1848.6 203.038C1868.47 260.694 1891.57 334.947 1953.47 358.99C1978.18 367.214 1968.46 336.172 1968.62 322.537C1975.56 289.996 1966.75 256.453 1960.19 221.152" stroke="url(#paint23_linear_744_63)" stroke-width="3"/>
<path d="M-58.0192 795.844C-26.2481 824.343 26.6162 800.735 57.2671 783.978C87.2681 767.654 106.837 753.486 120.492 722.5C136.566 688.332 126.429 650.871 157.705 620.002C203.248 576.593 274.44 590.531 312.696 542.28C334.207 509.441 330.599 473.28 335.263 435.019C343.741 393.02 357.551 359.382 390.581 330.613C427.338 298.734 463.278 283.3 509.639 264.75C611.757 224.015 718.725 193.793 825.201 169.012C938.704 146.245 1091.14 148.637 1185.84 222.501C1217.83 244.841 1219.93 274.52 1214.67 307.438C1223.08 309.442 1234.65 323.75 1272.36 328.001C1313.85 337.252 1368.03 322.015 1406.3 312.569C1482 291.679 1550.05 252.655 1499.91 176.51C1491.53 165.694 1394.97 95.8476 1423.63 81.2367C1444.31 72.9758 1486.58 65.6583 1513.12 60.5237C1581.44 47.9849 1654.15 42.0147 1718.96 59.5479C1792.55 77.3958 1826.98 131.181 1852.14 194.961C1871.75 253.417 1894.71 329.26 1957.41 354.023C1982.05 362.601 1971.5 331.296 1971.09 317.986C1975.89 287.29 1967.5 255.774 1961.02 222.786" stroke="url(#paint24_linear_744_63)" stroke-width="3"/>
<path d="M-56.3533 790.597C-24.7131 819.442 28.3917 795.041 58.8108 777.764C88.5666 760.93 107.663 746.429 120.767 715.084C136.021 680.598 124.95 643.24 156.468 612.778C202.55 569.517 275.132 584.961 314.298 536.774C336.436 504.892 333.763 469.188 338.992 431.651C347.763 389.161 361.892 355.215 395.507 326.179C432.926 293.968 469.378 278.485 516.284 259.691C619.19 218.563 727.335 186.928 835.019 162.909C950.492 140.16 1105.76 143.135 1202.09 219.058C1234.4 242.387 1236.19 273.202 1230.4 307.264C1236.65 311.848 1244.64 327.68 1279.78 332.254C1321.32 341.753 1375.84 326.165 1414.24 316.266C1490.83 294.687 1559.74 254.376 1508.26 175.824C1499.32 163.728 1401.02 91.3264 1429.98 75.3472C1450.78 65.7561 1492.7 58.3236 1518.45 53.4078C1586.86 40.9343 1659.62 35.4542 1725.01 53.3473C1797.76 71.5531 1831.39 123.718 1855.39 187.564C1874.76 246.753 1897.59 324.053 1961.01 349.477C1985.6 358.378 1974.28 326.833 1973.36 313.821C1976.19 284.815 1968.19 255.157 1961.78 224.289" stroke="url(#paint25_linear_744_63)" stroke-width="3"/>
<path d="M-54.8385 785.832C-23.3171 814.992 30.0061 789.869 60.2147 772.121C89.7476 754.823 108.414 740.02 121.017 708.348C135.527 673.574 123.606 636.308 155.346 606.217C201.917 563.09 275.761 579.903 315.756 531.773C338.462 500.762 336.639 465.474 342.382 428.594C351.42 385.658 365.839 351.432 399.985 322.153C438.006 289.641 474.923 274.113 522.324 255.098C625.947 213.613 735.161 180.692 843.942 157.366C961.207 134.633 1119.05 138.138 1216.85 215.932C1249.46 240.162 1250.97 272.007 1244.7 307.11C1248.99 314.038 1253.73 331.256 1286.52 336.123C1328.12 345.847 1382.94 329.94 1421.45 319.63C1498.86 297.424 1568.56 255.944 1515.85 175.205C1506.4 161.945 1406.52 87.2214 1435.75 69.9988C1456.65 59.1988 1498.26 51.6617 1523.3 46.9448C1591.78 34.5305 1664.59 29.496 1730.51 47.7161C1802.5 66.2471 1835.4 116.939 1858.34 180.845C1877.49 240.701 1900.21 319.325 1964.29 345.348C1988.82 354.544 1976.82 322.781 1975.43 310.039C1976.47 282.57 1968.82 254.6 1962.47 225.659" stroke="url(#paint26_linear_744_63)" stroke-width="3"/>
<path d="M-53.4762 781.548C-22.0617 810.991 31.4581 785.219 61.4772 767.046C90.8096 749.331 109.089 734.255 121.242 702.289C135.081 667.256 122.397 630.074 154.335 600.316C201.348 557.31 276.327 575.354 317.066 527.277C340.284 497.048 339.227 462.134 345.431 425.846C354.708 382.508 369.389 348.03 404.014 318.533C442.576 285.75 479.911 270.181 527.758 250.967C632.024 209.162 742.201 175.084 851.969 152.381C970.845 129.662 1131 133.644 1230.13 213.122C1263.01 238.161 1264.26 270.935 1257.56 306.973C1260.09 316.01 1261.9 334.475 1292.59 339.605C1334.23 349.532 1389.32 333.337 1427.93 322.658C1506.08 299.889 1576.49 257.357 1522.68 174.649C1512.77 160.343 1411.46 83.5301 1440.95 65.1888C1461.94 53.3012 1503.27 45.67 1527.66 41.1322C1596.21 28.7712 1669.07 24.1373 1735.46 42.6518C1806.76 61.4754 1839.01 110.842 1860.99 174.803C1879.95 235.258 1902.56 315.073 1967.24 341.636C1991.72 351.097 1979.1 319.137 1977.28 306.639C1976.71 280.552 1969.38 254.101 1963.09 226.893" stroke="url(#paint27_linear_744_63)" stroke-width="3"/>
<path d="M-52.2646 777.742C-20.9451 807.436 32.7493 781.088 62.6001 762.538C91.7543 744.453 109.691 729.135 121.443 696.907C134.687 661.643 121.324 624.537 153.438 595.075C200.842 552.175 276.831 571.314 318.232 523.282C341.905 493.749 341.527 459.167 348.141 423.405C357.632 379.711 372.544 345.008 407.594 315.318C446.637 282.294 484.343 266.689 532.586 247.299C637.425 205.207 748.457 170.103 859.102 147.953C979.41 125.247 1141.62 129.652 1241.94 210.627C1275.05 236.384 1276.08 269.982 1268.99 306.852C1269.95 317.763 1269.16 337.335 1297.98 342.7C1339.67 352.807 1394.99 336.357 1433.69 325.349C1512.5 302.079 1583.54 258.613 1528.75 174.156C1518.43 158.92 1415.85 80.2514 1445.56 60.9163C1466.64 48.0625 1507.72 40.3477 1531.54 35.9688C1600.15 23.6551 1673.05 19.3774 1739.86 38.1533C1810.55 57.2368 1842.21 105.426 1863.35 169.435C1882.14 230.423 1904.65 311.297 1969.86 338.339C1994.3 348.036 1981.13 315.901 1978.93 303.618C1976.93 278.759 1969.88 253.658 1963.64 227.991" stroke="url(#paint28_linear_744_63)" stroke-width="3"/>
<path d="M-51.2051 774.415C-19.9686 804.33 33.8785 777.477 63.5821 758.598C92.5806 740.188 110.217 724.658 121.619 692.203C134.342 656.737 120.386 619.696 152.654 590.493C200.401 547.687 277.272 567.782 319.251 519.791C343.322 490.866 343.538 456.574 350.511 421.272C360.188 377.266 375.303 342.368 410.724 312.507C450.188 279.273 488.22 263.637 536.809 244.092C642.148 201.751 753.928 165.748 865.34 144.083C986.9 121.387 1150.91 126.163 1252.26 208.446C1285.57 234.832 1286.41 269.151 1278.98 306.747C1278.57 319.297 1275.5 339.838 1302.69 345.407C1344.42 355.672 1399.96 338.999 1438.73 327.704C1518.11 303.996 1589.7 259.712 1534.06 173.727C1523.37 157.678 1419.7 77.3858 1449.6 57.1817C1470.75 43.4828 1511.61 35.6949 1534.93 31.4551C1603.59 19.1828 1676.53 15.2165 1743.7 34.2209C1813.86 53.5318 1845.02 100.692 1865.41 164.743C1884.05 226.197 1906.48 307.996 1972.16 335.457C1996.55 345.36 1982.9 313.072 1980.38 300.979C1977.13 277.194 1970.32 253.272 1964.13 228.952" stroke="url(#paint29_linear_744_63)" stroke-width="3"/>
<path d="M-50.2976 771.566C-19.1323 801.669 34.8457 774.385 64.4232 755.223C93.2883 736.536 110.667 720.825 121.77 688.173C134.047 652.536 119.582 615.55 151.983 586.569C200.023 543.843 277.649 564.758 320.124 516.801C344.535 488.397 345.261 454.354 352.541 419.446C362.377 375.172 377.667 340.106 413.406 310.101C453.229 276.687 491.539 261.023 540.425 241.346C646.193 198.791 758.613 162.019 870.681 140.768C993.314 118.082 1158.87 123.175 1261.1 206.578C1294.59 233.503 1295.26 268.44 1287.54 306.658C1285.95 320.612 1280.94 341.981 1306.73 347.726C1348.49 358.126 1404.2 341.262 1443.05 329.721C1522.92 305.638 1594.98 260.654 1538.61 173.359C1527.61 156.614 1422.99 74.9319 1453.06 53.9834C1474.27 39.5609 1514.94 31.7105 1537.83 27.5897C1606.53 15.3529 1679.51 11.6532 1747 30.8534C1816.7 50.359 1847.42 96.6374 1867.18 160.724C1885.69 222.577 1908.05 305.169 1974.12 332.99C1998.48 343.068 1984.42 310.65 1981.61 298.718C1977.29 275.853 1970.7 252.942 1964.54 229.775" stroke="url(#paint30_linear_744_63)" stroke-width="3"/>
<path d="M-49.5413 769.196C-18.4352 799.456 35.6516 771.812 65.1242 752.415C93.8783 733.497 111.043 717.635 121.896 684.821C133.802 649.039 118.914 612.1 151.425 583.303C199.709 540.645 277.965 562.241 320.852 514.313C345.546 486.342 346.695 452.507 354.231 417.926C364.201 373.431 379.634 338.225 415.638 308.099C455.762 274.534 494.304 258.848 543.436 239.061C649.561 196.328 762.514 158.916 875.129 138.01C998.654 115.332 1165.49 120.689 1268.46 205.025C1302.09 232.398 1302.62 267.848 1294.66 306.585C1292.1 321.706 1285.47 343.766 1310.09 349.657C1351.87 360.17 1407.74 343.146 1446.64 331.401C1526.92 307.005 1599.37 261.439 1542.39 173.054C1531.14 155.729 1425.73 72.8902 1455.94 51.3222C1477.2 36.2975 1517.71 28.3949 1540.25 24.3732C1608.99 12.1659 1681.99 8.68823 1749.74 28.0514C1819.06 47.719 1849.42 93.2637 1868.65 157.38C1887.05 219.565 1909.35 302.817 1975.76 330.937C2000.09 341.162 1985.68 308.635 1982.64 296.838C1977.43 274.738 1971.01 252.668 1964.89 230.461" stroke="url(#paint31_linear_744_63)" stroke-width="3"/>
<defs>
<linearGradient id="paint0_linear_744_63" x1="821.689" y1="348.524" x2="1018.18" y2="1039.05" gradientUnits="userSpaceOnUse">
<stop offset="0.19" stop-color="#FFAE52"/>
<stop offset="0.535" stop-color="#F26518"/>
<stop offset="0.885" stop-color="#FC8600"/>
</linearGradient>
<linearGradient id="paint1_linear_744_63" x1="855.116" y1="136.246" x2="991.161" y2="614.356" gradientUnits="userSpaceOnUse">
<stop offset="0.19" stop-color="#FFAE52"/>
<stop offset="0.535" stop-color="#F26518"/>
<stop offset="0.885" stop-color="#FC8600"/>
</linearGradient>
<linearGradient id="paint2_linear_744_63" x1="823.605" y1="336.265" x2="1008.99" y2="987.771" gradientUnits="userSpaceOnUse">
<stop offset="0.19" stop-color="#FFAE52"/>
<stop offset="0.535" stop-color="#F26518"/>
<stop offset="0.885" stop-color="#FC8600"/>
</linearGradient>
<linearGradient id="paint3_linear_744_63" x1="825.466" y1="324.366" x2="1000.14" y2="938.245" gradientUnits="userSpaceOnUse">
<stop offset="0.19" stop-color="#FFAE52"/>
<stop offset="0.535" stop-color="#F26518"/>
<stop offset="0.885" stop-color="#FC8600"/>
</linearGradient>
<linearGradient id="paint4_linear_744_63" x1="827.269" y1="312.827" x2="992.413" y2="893.199" gradientUnits="userSpaceOnUse">
<stop offset="0.19" stop-color="#FFAE52"/>
<stop offset="0.535" stop-color="#F26518"/>
<stop offset="0.885" stop-color="#FC8600"/>
</linearGradient>
<linearGradient id="paint5_linear_744_63" x1="829.017" y1="301.651" x2="986.844" y2="856.309" gradientUnits="userSpaceOnUse">
<stop offset="0.19" stop-color="#FFAE52"/>
<stop offset="0.535" stop-color="#F26518"/>
<stop offset="0.885" stop-color="#FC8600"/>
</linearGradient>
<linearGradient id="paint6_linear_744_63" x1="830.709" y1="290.835" x2="981.469" y2="820.66" gradientUnits="userSpaceOnUse">
<stop offset="0.19" stop-color="#FFAE52"/>
<stop offset="0.535" stop-color="#F26518"/>
<stop offset="0.885" stop-color="#FC8600"/>
</linearGradient>
<linearGradient id="paint7_linear_744_63" x1="832.343" y1="280.38" x2="976.289" y2="786.254" gradientUnits="userSpaceOnUse">
<stop offset="0.19" stop-color="#FFAE52"/>
<stop offset="0.535" stop-color="#F26518"/>
<stop offset="0.885" stop-color="#FC8600"/>
</linearGradient>
<linearGradient id="paint8_linear_744_63" x1="833.921" y1="270.286" x2="971.303" y2="753.096" gradientUnits="userSpaceOnUse">
<stop offset="0.19" stop-color="#FFAE52"/>
<stop offset="0.535" stop-color="#F26518"/>
<stop offset="0.885" stop-color="#FC8600"/>
</linearGradient>
<linearGradient id="paint9_linear_744_63" x1="835.442" y1="260.553" x2="971.164" y2="737.526" gradientUnits="userSpaceOnUse">
<stop offset="0.19" stop-color="#FFAE52"/>
<stop offset="0.535" stop-color="#F26518"/>
<stop offset="0.885" stop-color="#FC8600"/>
</linearGradient>
<linearGradient id="paint10_linear_744_63" x1="836.907" y1="251.181" x2="972.367" y2="727.235" gradientUnits="userSpaceOnUse">
<stop offset="0.19" stop-color="#FFAE52"/>
<stop offset="0.535" stop-color="#F26518"/>
<stop offset="0.885" stop-color="#FC8600"/>
</linearGradient>
<linearGradient id="paint11_linear_744_63" x1="838.317" y1="242.17" x2="973.595" y2="717.584" gradientUnits="userSpaceOnUse">
<stop offset="0.19" stop-color="#FFAE52"/>
<stop offset="0.535" stop-color="#F26518"/>
<stop offset="0.885" stop-color="#FC8600"/>
</linearGradient>
<linearGradient id="paint12_linear_744_63" x1="839.669" y1="233.519" x2="974.821" y2="708.489" gradientUnits="userSpaceOnUse">
<stop offset="0.19" stop-color="#FFAE52"/>
<stop offset="0.535" stop-color="#F26518"/>
<stop offset="0.885" stop-color="#FC8600"/>
</linearGradient>
<linearGradient id="paint13_linear_744_63" x1="840.965" y1="225.23" x2="976.03" y2="699.897" gradientUnits="userSpaceOnUse">
<stop offset="0.19" stop-color="#FFAE52"/>
<stop offset="0.535" stop-color="#F26518"/>
<stop offset="0.885" stop-color="#FC8600"/>
</linearGradient>
<linearGradient id="paint14_linear_744_63" x1="842.205" y1="217.302" x2="977.208" y2="691.749" gradientUnits="userSpaceOnUse">
<stop offset="0.19" stop-color="#FFAE52"/>
<stop offset="0.535" stop-color="#F26518"/>
<stop offset="0.885" stop-color="#FC8600"/>
</linearGradient>
<linearGradient id="paint15_linear_744_63" x1="843.388" y1="209.735" x2="978.333" y2="683.977" gradientUnits="userSpaceOnUse">
<stop offset="0.19" stop-color="#FFAE52"/>
<stop offset="0.535" stop-color="#F26518"/>
<stop offset="0.885" stop-color="#FC8600"/>
</linearGradient>
<linearGradient id="paint16_linear_744_63" x1="844.514" y1="202.528" x2="979.404" y2="676.577" gradientUnits="userSpaceOnUse">
<stop offset="0.19" stop-color="#FFAE52"/>
<stop offset="0.535" stop-color="#F26518"/>
<stop offset="0.885" stop-color="#FC8600"/>
</linearGradient>
<linearGradient id="paint17_linear_744_63" x1="845.585" y1="195.684" x2="980.422" y2="669.55" gradientUnits="userSpaceOnUse">
<stop offset="0.19" stop-color="#FFAE52"/>
<stop offset="0.535" stop-color="#F26518"/>
<stop offset="0.885" stop-color="#FC8600"/>
</linearGradient>
<linearGradient id="paint18_linear_744_63" x1="846.599" y1="189.198" x2="981.496" y2="663.275" gradientUnits="userSpaceOnUse">
<stop offset="0.19" stop-color="#FFAE52"/>
<stop offset="0.535" stop-color="#F26518"/>
<stop offset="0.885" stop-color="#FC8600"/>
</linearGradient>
<linearGradient id="paint19_linear_744_63" x1="847.556" y1="183.075" x2="982.542" y2="657.462" gradientUnits="userSpaceOnUse">
<stop offset="0.19" stop-color="#FFAE52"/>
<stop offset="0.535" stop-color="#F26518"/>
<stop offset="0.885" stop-color="#FC8600"/>
</linearGradient>
<linearGradient id="paint20_linear_744_63" x1="848.457" y1="177.313" x2="983.545" y2="652.06" gradientUnits="userSpaceOnUse">
<stop offset="0.19" stop-color="#FFAE52"/>
<stop offset="0.535" stop-color="#F26518"/>
<stop offset="0.885" stop-color="#FC8600"/>
</linearGradient>
<linearGradient id="paint21_linear_744_63" x1="849.301" y1="171.911" x2="984.499" y2="647.043" gradientUnits="userSpaceOnUse">
<stop offset="0.19" stop-color="#FFAE52"/>
<stop offset="0.535" stop-color="#F26518"/>
<stop offset="0.885" stop-color="#FC8600"/>
</linearGradient>
<linearGradient id="paint22_linear_744_63" x1="850.09" y1="166.871" x2="985.398" y2="642.391" gradientUnits="userSpaceOnUse">
<stop offset="0.19" stop-color="#FFAE52"/>
<stop offset="0.535" stop-color="#F26518"/>
<stop offset="0.885" stop-color="#FC8600"/>
</linearGradient>
<linearGradient id="paint23_linear_744_63" x1="850.821" y1="162.191" x2="986.237" y2="638.088" gradientUnits="userSpaceOnUse">
<stop offset="0.19" stop-color="#FFAE52"/>
<stop offset="0.535" stop-color="#F26518"/>
<stop offset="0.885" stop-color="#FC8600"/>
</linearGradient>
<linearGradient id="paint24_linear_744_63" x1="851.496" y1="157.872" x2="987.014" y2="634.128" gradientUnits="userSpaceOnUse">
<stop offset="0.19" stop-color="#FFAE52"/>
<stop offset="0.535" stop-color="#F26518"/>
<stop offset="0.885" stop-color="#FC8600"/>
</linearGradient>
<linearGradient id="paint25_linear_744_63" x1="852.115" y1="153.914" x2="987.728" y2="630.503" gradientUnits="userSpaceOnUse">
<stop offset="0.19" stop-color="#FFAE52"/>
<stop offset="0.535" stop-color="#F26518"/>
<stop offset="0.885" stop-color="#FC8600"/>
</linearGradient>
<linearGradient id="paint26_linear_744_63" x1="852.678" y1="150.317" x2="988.378" y2="627.214" gradientUnits="userSpaceOnUse">
<stop offset="0.19" stop-color="#FFAE52"/>
<stop offset="0.535" stop-color="#F26518"/>
<stop offset="0.885" stop-color="#FC8600"/>
</linearGradient>
<linearGradient id="paint27_linear_744_63" x1="853.183" y1="147.082" x2="988.962" y2="624.256" gradientUnits="userSpaceOnUse">
<stop offset="0.19" stop-color="#FFAE52"/>
<stop offset="0.535" stop-color="#F26518"/>
<stop offset="0.885" stop-color="#FC8600"/>
</linearGradient>
<linearGradient id="paint28_linear_744_63" x1="853.633" y1="144.206" x2="989.483" y2="621.63" gradientUnits="userSpaceOnUse">
<stop offset="0.19" stop-color="#FFAE52"/>
<stop offset="0.535" stop-color="#F26518"/>
<stop offset="0.885" stop-color="#FC8600"/>
</linearGradient>
<linearGradient id="paint29_linear_744_63" x1="854.026" y1="141.693" x2="989.938" y2="619.334" gradientUnits="userSpaceOnUse">
<stop offset="0.19" stop-color="#FFAE52"/>
<stop offset="0.535" stop-color="#F26518"/>
<stop offset="0.885" stop-color="#FC8600"/>
</linearGradient>
<linearGradient id="paint30_linear_744_63" x1="854.363" y1="139.54" x2="990.328" y2="617.369" gradientUnits="userSpaceOnUse">
<stop offset="0.19" stop-color="#FFAE52"/>
<stop offset="0.535" stop-color="#F26518"/>
<stop offset="0.885" stop-color="#FC8600"/>
</linearGradient>
<linearGradient id="paint31_linear_744_63" x1="854.644" y1="137.748" x2="990.653" y2="615.734" gradientUnits="userSpaceOnUse">
<stop offset="0.19" stop-color="#FFAE52"/>
<stop offset="0.535" stop-color="#F26518"/>
<stop offset="0.885" stop-color="#FC8600"/>
</linearGradient>
</defs>
</svg>
