<svg width="83" height="83" viewBox="0 0 83 83" fill="none" xmlns="http://www.w3.org/2000/svg">
<g filter="url(#filter0_d_712_63)">
<circle cx="41.5" cy="37.5" r="37.5" fill="#2F2B4B"/>
</g>
<path d="M29.0001 41C30.657 41 32.0001 39.6569 32.0001 38C32.0001 36.3431 30.657 35 29.0001 35V41ZM26.8787 35.8787C25.7071 37.0503 25.7071 38.9497 26.8787 40.1213L45.9706 59.2132C47.1422 60.3848 49.0417 60.3848 50.2132 59.2132C51.3848 58.0416 51.3848 56.1421 50.2132 54.9706L33.2427 38L50.2132 21.0294C51.3848 19.8579 51.3848 17.9584 50.2132 16.7868C49.0417 15.6152 47.1422 15.6152 45.9706 16.7868L26.8787 35.8787ZM29.0001 35H29V41H29.0001V35Z" fill="white"/>
<defs>
<filter id="filter0_d_712_63" x="0" y="0" width="83" height="83" filterUnits="userSpaceOnUse" color-interpolation-filters="sRGB">
<feFlood flood-opacity="0" result="BackgroundImageFix"/>
<feColorMatrix in="SourceAlpha" type="matrix" values="0 0 0 0 0 0 0 0 0 0 0 0 0 0 0 0 0 0 127 0" result="hardAlpha"/>
<feOffset dy="4"/>
<feGaussianBlur stdDeviation="2"/>
<feComposite in2="hardAlpha" operator="out"/>
<feColorMatrix type="matrix" values="0 0 0 0 0 0 0 0 0 0 0 0 0 0 0 0 0 0 0.25 0"/>
<feBlend mode="normal" in2="BackgroundImageFix" result="effect1_dropShadow_712_63"/>
<feBlend mode="normal" in="SourceGraphic" in2="effect1_dropShadow_712_63" result="shape"/>
</filter>
</defs>
</svg>
