<svg width="29" height="28" viewBox="0 0 29 28" fill="none" xmlns="http://www.w3.org/2000/svg">
<path fill-rule="evenodd" clip-rule="evenodd" d="M2.03854 1.96824C0 3.93648 0 7.1043 0 13.44V14.56C0 20.8957 0 24.0635 2.03854 26.0318C4.07707 28 7.35803 28 13.92 28H15.08C21.642 28 24.9229 28 26.9615 26.0318C29 24.0635 29 20.8957 29 14.56V13.44C29 7.1043 29 3.93648 26.9615 1.96824C24.9229 0 21.642 0 15.08 0H13.92C7.35803 0 4.07707 0 2.03854 1.96824ZM4.89382 8.51672C5.05091 15.7967 8.82089 20.1717 15.4305 20.1717H15.8051V16.0067C18.2339 16.2401 20.0704 17.9551 20.8075 20.1717H24.2392C23.2967 16.8584 20.8195 15.0267 19.2729 14.3267C20.8195 13.4634 22.9945 11.3634 23.5141 8.51672H20.3965C19.7199 10.8267 17.7143 12.9267 15.8051 13.1251V8.51672H12.6875V16.5901C10.7542 16.1234 8.31339 13.8601 8.20464 8.51672H4.89382Z" fill="white"/>
</svg>
