<svg width="29" height="28" viewBox="0 0 29 28" fill="none" xmlns="http://www.w3.org/2000/svg">
<g clip-path="url(#clip0_197_198)">
<path fill-rule="evenodd" clip-rule="evenodd" d="M28.354 14C28.354 21.732 22.086 28 14.354 28C6.62202 28 0.354004 21.732 0.354004 14C0.354004 6.26801 6.62202 0 14.354 0C22.086 0 28.354 6.26801 28.354 14ZM14.8557 10.3354C13.494 10.9018 10.7725 12.0741 6.69121 13.8522C6.02847 14.1158 5.6813 14.3736 5.6497 14.6257C5.59629 15.0517 6.12983 15.2195 6.85638 15.448C6.95521 15.4791 7.05762 15.5113 7.1626 15.5454C7.87741 15.7777 8.83897 16.0496 9.33884 16.0604C9.79227 16.0702 10.2984 15.8832 10.8571 15.4996C14.6704 12.9255 16.6388 11.6244 16.7624 11.5964C16.8496 11.5766 16.9704 11.5517 17.0522 11.6245C17.1341 11.6972 17.126 11.835 17.1174 11.872C17.0645 12.0973 14.9701 14.0444 13.8863 15.0521C13.5484 15.3662 13.3088 15.589 13.2598 15.6399C13.15 15.7539 13.0382 15.8617 12.9306 15.9654C12.2666 16.6055 11.7686 17.0856 12.9582 17.8696C13.5299 18.2463 13.9874 18.5579 14.4438 18.8687C14.9422 19.2081 15.4393 19.5466 16.0826 19.9683C16.2464 20.0757 16.4029 20.1873 16.5554 20.2959C17.1354 20.7095 17.6565 21.081 18.3004 21.0217C18.6745 20.9873 19.0609 20.6355 19.2571 19.5864C19.7209 17.107 20.6326 11.7349 20.8433 9.52114C20.8617 9.32718 20.8385 9.07897 20.8198 8.97C20.8012 8.86104 20.7622 8.70579 20.6206 8.59087C20.4529 8.45476 20.1939 8.42606 20.0781 8.4281C19.5515 8.43737 18.7436 8.71829 14.8557 10.3354Z" fill="white"/>
</g>
<defs>
<clipPath id="clip0_197_198">
<rect width="28" height="28" fill="white" transform="translate(0.354004)"/>
</clipPath>
</defs>
</svg>
