<svg width="29" height="20" viewBox="0 0 29 20" fill="none" xmlns="http://www.w3.org/2000/svg">
<path d="M28.3095 4.4001C28.3095 4.4001 28.036 2.46963 27.1938 1.62197C26.1274 0.506348 24.9353 0.500879 24.3884 0.435254C20.4728 0.150879 14.5938 0.150879 14.5938 0.150879H14.5829C14.5829 0.150879 8.704 0.150879 4.78838 0.435254C4.2415 0.500879 3.04932 0.506348 1.98291 1.62197C1.14072 2.46963 0.872754 4.4001 0.872754 4.4001C0.872754 4.4001 0.588379 6.66963 0.588379 8.93369V11.0556C0.588379 13.3196 0.867285 15.5892 0.867285 15.5892C0.867285 15.5892 1.14072 17.5196 1.97744 18.3673C3.04385 19.4829 4.44385 19.4446 5.06729 19.5649C7.30947 19.7782 14.5884 19.8438 14.5884 19.8438C14.5884 19.8438 20.4728 19.8329 24.3884 19.554C24.9353 19.4884 26.1274 19.4829 27.1938 18.3673C28.036 17.5196 28.3095 15.5892 28.3095 15.5892C28.3095 15.5892 28.5884 13.3251 28.5884 11.0556V8.93369C28.5884 6.66963 28.3095 4.4001 28.3095 4.4001ZM11.6954 13.6313V5.76182L19.2587 9.71025L11.6954 13.6313Z" fill="white"/>
</svg>
