<svg width="1920" height="1080" viewBox="0 0 1920 1080" fill="none" xmlns="http://www.w3.org/2000/svg">
<g clip-path="url(#clip0_632_131)">
<rect width="1920" height="1080" fill="white"/>
<rect width="1920" height="1080" fill="#292643"/>
<rect width="1920" height="1080" fill="url(#paint0_linear_632_131)" fill-opacity="0.2"/>
<g filter="url(#filter0_d_632_131)">
<path d="M1062.05 -239.841C1289.72 -195.558 1424.22 -143.777 1490.97 -93.4293C1552.39 -44.4262 1541.51 9.0607 1500.25 63.7777C1412.95 167.155 1434.94 284.976 1601.98 368.508C1687.39 406.23 1785.76 399.395 1889.48 390.377C1993.2 381.36 2077.15 359.199 2153.24 430.047C2292.72 569.154 2397.61 787.813 2215.76 770.535" stroke="url(#paint1_linear_632_131)"/>
<path d="M1019.63 -104.267C1182.01 -29.9023 1231.57 52.9033 1248.26 98.1009C1201.31 127.268 1067.29 189.36 1122.14 305.994C1175.13 467.055 1278.98 515.453 1395.16 459.007C1475.7 382.567 1520.5 524.336 1675.39 574.384C1830.28 624.431 1795.72 452.091 1950.3 507.794C2108.29 588.332 2180.24 730.264 2101.24 739.71" stroke="url(#paint2_linear_632_131)"/>
<path d="M1062.05 -239.841C1289.72 -195.558 1424.22 -143.777 1490.97 -93.4293C1552.39 -44.4262 1541.51 9.0607 1500.25 63.7777C1412.95 167.155 1434.94 284.976 1601.98 368.508C1687.39 406.23 1785.76 399.395 1889.48 390.377C1993.2 381.36 2077.15 359.199 2153.24 430.047C2292.72 569.154 2397.61 787.813 2215.76 770.535" stroke="url(#paint3_linear_632_131)"/>
<path d="M1058.25 -227.712C1280.09 -180.737 1406.98 -126.181 1469.25 -76.2936C1520.97 -29.0651 1499.09 25.1916 1466.42 85.4483C1391.67 193.986 1420.99 305.597 1583.48 376.605C1668.45 404.112 1762.03 410.573 1870.33 406.84C1978.63 403.107 2051.97 367.509 2135.08 437.002C2276.22 570.869 2378.16 782.663 2205.51 767.776" stroke="url(#paint4_linear_632_131)"/>
<path d="M1054.55 -215.865C1270.67 -166.262 1390.15 -108.995 1448.05 -59.5575C1490.3 -14.0624 1457.65 40.9462 1433.38 106.613C1370.89 220.192 1407.36 325.736 1565.4 384.513C1649.95 402.045 1738.85 421.491 1851.62 422.919C1964.39 424.347 2027.38 375.626 2117.35 443.796C2260.11 572.545 2359.17 777.635 2195.5 765.083" stroke="url(#paint5_linear_632_131)"/>
<path d="M1050.93 -204.303C1261.49 -152.134 1373.72 -92.2204 1427.35 -43.2227C1460.36 0.580687 1417.2 56.3232 1401.13 127.271C1350.61 245.769 1394.06 345.392 1547.76 392.231C1631.9 400.026 1716.22 432.146 1833.36 438.612C1950.49 445.077 2003.38 383.549 2100.04 450.427C2244.38 574.181 2340.63 772.727 2185.74 762.454" stroke="url(#paint6_linear_632_131)"/>
<path d="M1047.4 -193.024C1252.53 -138.352 1357.69 -75.8578 1407.15 -27.2885C1431.15 14.8645 1377.75 71.3229 1369.68 147.422C1330.82 270.719 1381.08 364.566 1530.56 399.759C1614.29 398.057 1694.16 442.541 1815.55 453.92C1936.94 465.299 1979.96 391.276 2083.16 456.895C2229.03 575.776 2322.54 767.938 2176.21 759.889" stroke="url(#paint7_linear_632_131)"/>
<path d="M1043.96 -182.028C1243.79 -124.916 1342.06 -59.9057 1387.47 -11.7541C1402.68 28.7901 1339.29 85.9464 1339.01 167.068C1311.54 295.043 1368.43 383.26 1513.78 407.1C1597.12 396.138 1672.64 452.674 1798.18 468.844C1923.73 485.014 1957.14 398.811 2066.7 463.201C2214.07 577.332 2304.91 763.271 2166.92 757.39" stroke="url(#paint8_linear_632_131)"/>
<path d="M1040.61 -171.315C1235.28 -111.827 1326.84 -44.365 1368.29 3.37963C1374.94 42.3565 1301.82 100.193 1309.13 186.206C1292.74 318.74 1356.11 401.471 1497.44 414.25C1580.39 394.269 1651.68 462.547 1781.27 483.383C1910.85 504.22 1934.9 406.151 2050.66 469.344C2199.5 578.847 2287.74 758.724 2157.87 754.954" stroke="url(#paint9_linear_632_131)"/>
<path d="M1037.34 -160.887C1226.99 -99.0846 1312.02 -29.2358 1349.62 18.1126C1347.93 55.5636 1265.34 114.062 1280.05 204.838C1274.45 341.809 1344.11 419.199 1481.53 421.212C1564.11 392.449 1631.28 472.157 1764.8 497.538C1898.32 522.918 1913.25 413.296 2035.05 475.324C2185.31 580.322 2271.02 754.297 2149.06 752.583" stroke="url(#paint10_linear_632_131)"/>
<path d="M1034.17 -150.742C1218.93 -86.6885 1297.61 -14.5181 1331.46 32.445C1321.66 68.4116 1229.85 127.554 1251.76 222.963C1256.65 364.251 1332.44 436.446 1466.05 427.984C1548.27 390.678 1611.43 481.507 1748.78 511.307C1886.13 541.107 1892.19 420.247 2019.87 481.142C2171.51 581.757 2254.75 749.99 2140.49 750.276" stroke="url(#paint11_linear_632_131)"/>
<path d="M1031.09 -140.88C1211.1 -74.6386 1283.59 -0.21136 1313.8 46.3771C1296.12 80.9008 1195.35 140.669 1224.25 240.583C1239.36 386.066 1321.1 453.211 1451.01 434.567C1532.87 388.956 1592.14 490.595 1733.21 524.692C1874.28 558.789 1871.72 427.004 2005.11 486.797C2158.09 583.152 2238.94 745.804 2132.16 748.034" stroke="url(#paint12_linear_632_131)"/>
<path d="M1028.09 -131.301C1203.49 -62.9347 1269.98 13.6844 1296.66 59.9089C1271.32 93.0312 1161.85 153.407 1197.54 257.695C1222.55 407.254 1310.08 469.495 1436.4 440.961C1517.91 387.285 1573.4 499.422 1718.08 537.692C1862.77 575.962 1851.84 433.568 1990.77 492.291C2145.06 584.508 2223.58 741.739 2124.07 745.857" stroke="url(#paint13_linear_632_131)"/>
<path d="M1025.18 -122.006C1196.1 -51.5775 1256.78 27.1687 1280.02 73.0401C1247.25 104.802 1129.34 165.768 1171.62 274.302C1206.25 427.815 1299.38 485.296 1422.22 447.165C1503.4 385.663 1555.21 507.988 1703.4 550.307C1851.6 592.627 1832.54 439.936 1976.86 497.621C2132.42 585.823 2208.68 737.794 2116.22 743.743" stroke="url(#paint14_linear_632_131)"/>
<path d="M1022.36 -112.995C1188.94 -40.5668 1243.97 40.2415 1263.88 85.7706C1223.91 116.214 1097.82 177.752 1146.49 290.401C1190.44 447.749 1289.02 500.615 1408.47 453.18C1489.33 384.09 1537.58 516.293 1689.17 562.538C1840.77 608.783 1813.84 446.111 1963.37 502.789C2120.16 587.097 2194.23 733.968 2108.61 741.695" stroke="url(#paint15_linear_632_131)"/>
<path d="M1019.63 -104.267C1182.01 -29.9023 1231.57 52.9033 1248.26 98.1009C1201.31 127.268 1067.29 189.36 1122.14 305.994C1175.13 467.055 1278.98 515.453 1395.16 459.007C1475.7 382.567 1520.5 524.336 1675.39 574.384C1830.28 624.431 1795.72 452.091 1950.3 507.794C2108.29 588.332 2180.24 730.264 2101.24 739.71" stroke="url(#paint16_linear_632_131)"/>
<path d="M1016.99 -95.8232C1175.3 -19.5848 1219.57 65.1532 1233.14 110.03C1179.45 137.961 1037.75 200.589 1098.6 321.081C1160.32 485.734 1269.26 529.807 1382.27 464.643C1462.52 381.092 1503.98 532.118 1662.06 585.844C1820.13 639.571 1778.19 457.876 1937.67 512.636C2096.8 589.526 2166.7 726.679 2094.1 737.79" stroke="url(#paint17_linear_632_131)"/>
<path d="M1014.44 -87.6626C1168.81 -9.61347 1207.97 76.9921 1218.53 121.559C1158.31 148.296 1009.2 211.442 1075.84 335.66C1146 503.786 1259.88 543.681 1369.82 470.09C1449.78 379.668 1488.01 539.638 1649.17 596.92C1810.32 654.202 1761.25 463.468 1925.45 517.316C2085.7 590.681 2153.61 723.215 2087.21 735.935" stroke="url(#paint18_linear_632_131)"/>
<path d="M1011.97 -79.7852C1162.56 0.0117793 1196.78 88.42 1204.43 132.688C1137.92 158.272 981.651 221.918 1053.87 349.734C1132.19 521.212 1250.81 557.072 1357.81 475.349C1437.48 378.293 1472.6 546.898 1636.73 607.612C1800.86 668.325 1744.9 468.865 1913.66 521.833C2074.98 591.795 2140.98 719.871 2080.56 734.144" stroke="url(#paint19_linear_632_131)"/>
<path d="M1009.6 -72.1914C1156.52 9.29043 1185.99 99.4364 1190.83 143.415C1118.25 167.889 955.089 232.017 1032.69 363.301C1118.86 538.01 1242.08 569.982 1346.22 480.418C1425.62 376.968 1457.75 553.896 1624.74 617.918C1791.73 681.94 1729.14 474.068 1902.29 526.188C2064.65 592.869 2128.81 716.648 2074.14 732.417" stroke="url(#paint20_linear_632_131)"/>
<path d="M1007.31 -64.8809C1150.72 18.223 1175.6 110.042 1177.75 153.743C1099.32 177.147 929.518 241.739 1012.3 376.362C1106.04 554.181 1233.67 582.409 1335.07 485.298C1414.21 375.692 1443.44 560.633 1613.19 627.84C1782.95 695.047 1713.96 479.077 1891.35 530.381C2054.7 593.904 2117.08 713.545 2067.97 730.755" stroke="url(#paint21_linear_632_131)"/>
<path d="M1008.85 -57.5274C1148.87 27.1355 1169.35 120.562 1168.9 163.997C1084.86 186.373 908.675 251.41 996.44 389.243C1097.45 570.051 1229.32 594.681 1328.09 490.315C1406.97 374.792 1433.43 567.436 1605.83 637.704C1778.24 707.972 1703.11 484.219 1884.57 534.737C2048.88 595.224 2109.55 710.889 2065.77 729.485" stroke="url(#paint22_linear_632_131)"/>
<path d="M1024.67 -49.2148C1161.44 36.9444 1177.7 131.914 1174.76 175.093C1085.33 196.482 903.015 261.948 995.562 402.86C1103.55 586.537 1239.49 607.714 1335.73 496.385C1414.37 375.185 1438.17 575.22 1613.11 648.426C1788.06 721.632 1707.04 490.408 1892.4 540.173C2057.63 597.748 2116.67 709.596 2078 729.521" stroke="url(#paint23_linear_632_131)"/>
<path d="M1039.82 -41.251C1173.48 46.3415 1185.7 142.79 1180.37 185.723C1085.78 206.167 897.598 272.042 994.725 415.905C1109.4 602.331 1249.24 620.2 1343.05 502.201C1421.46 375.561 1442.71 582.677 1620.09 658.697C1797.48 734.717 1710.81 496.338 1899.91 545.382C2066.03 600.166 2123.49 708.358 2089.72 729.556" stroke="url(#paint24_linear_632_131)"/>
<path d="M1054.32 -33.6365C1185.01 55.3263 1193.35 153.188 1185.74 195.886C1086.21 215.427 892.422 281.694 993.928 428.377C1114.99 617.431 1258.56 632.138 1350.06 507.762C1428.25 375.921 1447.05 589.807 1626.77 668.518C1806.48 747.229 1714.42 502.008 1907.1 550.362C2074.05 602.477 2130.02 707.174 2100.93 729.59" stroke="url(#paint25_linear_632_131)"/>
<path d="M1068.15 -26.3711C1196 63.8992 1200.65 163.109 1190.87 205.584C1086.63 224.262 887.486 290.904 993.17 440.278C1120.33 631.839 1267.46 643.528 1356.74 513.069C1434.72 376.266 1451.2 596.61 1633.14 677.888C1815.08 759.167 1717.86 507.419 1913.95 555.114C2081.71 604.684 2136.25 706.046 2111.63 729.623" stroke="url(#paint26_linear_632_131)"/>
<path d="M1081.32 -19.4552C1206.47 72.0597 1207.61 172.554 1195.75 214.815C1087.03 232.672 882.79 299.67 992.451 451.606C1125.42 645.554 1275.93 654.371 1363.11 518.119C1440.89 376.593 1455.15 603.086 1639.2 686.808C1823.26 770.53 1721.14 512.569 1920.48 559.637C2089 606.784 2142.18 704.971 2121.82 729.654" stroke="url(#paint27_linear_632_131)"/>
<path d="M1093.83 -12.8888C1216.41 79.8077 1214.21 181.52 1200.39 223.579C1087.41 240.658 878.333 307.993 991.77 462.362C1130.25 658.576 1283.98 664.665 1369.16 522.915C1446.75 376.904 1458.9 609.235 1644.97 695.277C1831.03 781.319 1724.26 517.458 1926.68 563.932C2095.93 608.778 2147.81 703.951 2131.49 729.684" stroke="url(#paint28_linear_632_131)"/>
<path d="M1105.67 -6.6721C1225.82 87.1432 1220.47 190.01 1204.78 231.877C1087.77 248.218 874.115 315.874 991.127 472.545C1134.82 670.904 1291.6 674.411 1374.88 527.455C1452.29 377.199 1462.45 615.056 1650.42 703.295C1838.39 791.534 1727.21 522.088 1932.55 567.998C2102.49 610.665 2153.14 702.985 2140.65 729.712" stroke="url(#paint29_linear_632_131)"/>
<path d="M1116.85 -0.804501C1234.71 94.0667 1226.37 198.022 1208.93 239.709C1088.12 255.353 870.135 323.311 990.521 482.156C1139.14 682.54 1298.79 683.61 1380.29 531.741C1457.53 377.477 1465.81 620.55 1655.57 710.863C1845.34 801.175 1730 526.457 1938.09 571.836C2108.68 612.448 2158.18 702.074 2149.3 729.739" stroke="url(#paint30_linear_632_131)"/>
<path d="M1127.36 4.71393C1243.06 100.578 1231.92 205.558 1212.83 247.074C1088.44 262.064 866.393 330.306 989.953 491.194C1143.2 693.482 1305.55 692.261 1385.38 535.771C1462.45 377.739 1468.96 625.718 1660.42 717.98C1851.87 810.242 1732.62 530.567 1943.31 575.445C2114.51 614.124 2162.92 701.217 2157.43 729.765" stroke="url(#paint31_linear_632_131)"/>
<path d="M1137.21 9.88219C1250.89 106.676 1237.13 212.615 1216.49 253.973C1088.74 268.349 862.889 336.857 989.421 499.66C1147.01 703.731 1311.89 700.364 1390.14 539.546C1467.07 377.984 1471.92 630.557 1664.96 724.646C1858 818.734 1735.08 534.415 1948.19 578.826C2119.96 615.693 2167.35 700.415 2165.05 729.788" stroke="url(#paint32_linear_632_131)"/>
<path d="M-80 337C140.11 398.398 204.532 410.186 229.841 615.992C167.719 730.438 62.1894 828.773 181.524 939.191C300.859 1049.61 402.529 906.61 447.65 833.096C511.945 770.552 648.74 699.494 681.565 915.615C722.596 1185.77 798.139 1132.23 832.651 1109.14C867.163 1086.06 968.014 1001.08 1055.06 1062.48C1124.7 1111.6 1286.04 1249.29 1358 1312" stroke="url(#paint33_linear_632_131)"/>
<path d="M-128 857.222C12.4024 747.184 77.7784 921.077 92.9162 1021.78C-4.21757 1093.47 -164.52 1250.06 -28.6587 1302.87C141.168 1368.9 135.491 1051.79 220.168 1147.32C287.909 1223.75 435.092 1179.17 500.216 1147.32C598.295 1138.15 799.564 1143.82 820 1239.85" stroke="url(#paint34_linear_632_131)"/>
<path d="M-80.7227 344.301C137.131 403.946 201.358 415.798 226.824 619.142C166.176 732.502 62.538 830.39 180.19 939.904C296.266 1049.74 393.993 911.249 440.48 839.637C505.085 778.531 640.439 707.598 673.227 919.576C714.098 1184.77 788.801 1131.2 823.43 1109.19C858.443 1087.6 959.992 1003.23 1046.71 1063.23C1116.77 1111.47 1278.71 1247.17 1349.9 1310.38" stroke="url(#paint35_linear_632_131)"/>
<path d="M-81.4805 351.955C134.007 409.763 198.029 421.681 223.661 622.445C164.558 734.667 62.9031 832.086 178.792 940.652C291.452 1049.88 385.044 916.114 432.963 846.495C497.893 786.898 631.736 716.095 664.486 923.73C705.189 1183.73 779.011 1130.13 813.765 1109.23C849.301 1089.22 951.582 1005.49 1037.95 1064.01C1108.47 1111.33 1271.04 1244.95 1341.41 1308.69" stroke="url(#paint36_linear_632_131)"/>
<path d="M-82.2725 359.961C130.74 415.847 194.548 427.834 220.353 625.899C162.867 736.93 63.2858 833.859 177.329 941.434C286.416 1050.02 375.683 921.201 425.1 853.668C490.371 795.648 622.633 724.983 655.343 928.075C695.87 1182.64 768.772 1129.01 803.654 1109.28C839.739 1090.91 942.785 1007.84 1028.79 1064.83C1099.78 1111.19 1263.01 1242.63 1332.53 1306.92" stroke="url(#paint37_linear_632_131)"/>
<path d="M-83.0996 368.32C127.33 422.2 190.914 434.258 216.899 629.506C161.1 739.293 63.685 835.711 175.802 942.25C281.158 1050.17 365.91 926.514 416.891 861.158C482.518 804.785 613.129 734.262 645.797 932.611C686.141 1181.5 758.081 1127.84 793.098 1109.33C829.756 1092.67 933.6 1010.31 1019.23 1065.68C1090.71 1111.04 1254.62 1240.21 1323.26 1305.07" stroke="url(#paint38_linear_632_131)"/>
<path d="M-83.9619 377.032C123.775 428.821 187.126 440.954 213.299 633.265C159.259 741.756 64.1008 837.641 174.211 943.101C275.678 1050.32 355.725 932.05 408.336 868.964C474.332 814.307 603.224 743.933 635.848 937.339C676.001 1180.31 746.939 1126.62 782.097 1109.39C819.351 1094.51 924.027 1012.87 1009.26 1066.57C1081.25 1110.88 1245.88 1237.68 1313.59 1303.14" stroke="url(#paint39_linear_632_131)"/>
<path d="M-84.8594 386.096C120.075 435.709 183.184 447.92 209.554 637.175C157.343 744.318 64.5333 839.648 172.554 943.986C269.976 1050.48 345.127 937.81 399.434 877.085C465.815 824.214 592.917 753.995 625.496 942.257C665.45 1179.08 735.345 1125.35 770.649 1109.44C808.525 1096.43 914.067 1015.54 998.895 1067.5C1071.41 1110.72 1236.79 1235.05 1303.54 1301.13" stroke="url(#paint40_linear_632_131)"/>
<path d="M-85.791 395.513C116.233 442.866 179.09 455.158 205.663 641.238C155.353 746.981 64.9833 841.734 170.834 944.906C264.053 1050.65 334.117 943.795 390.186 885.523C456.968 834.507 582.211 764.449 614.742 947.368C654.49 1177.8 723.301 1124.04 758.758 1109.5C797.279 1098.42 903.72 1018.32 988.122 1068.47C1061.19 1110.55 1227.35 1232.32 1293.09 1299.05" stroke="url(#paint41_linear_632_131)"/>
<path d="M-86.7578 405.282C112.247 450.29 174.842 462.666 201.626 645.454C153.289 749.743 65.4498 843.898 169.049 945.86C257.908 1050.83 322.695 950.004 380.591 894.276C447.789 845.185 571.103 775.294 603.585 952.669C643.118 1176.47 710.806 1122.67 746.42 1109.56C785.611 1100.48 892.985 1021.19 976.946 1069.46C1050.59 1110.38 1217.55 1229.48 1282.26 1296.88" stroke="url(#paint42_linear_632_131)"/>
<path d="M-87.7598 415.404C108.116 457.982 170.441 470.446 197.443 649.821C151.149 752.605 65.933 846.141 167.2 946.848C251.541 1051.01 310.86 956.437 370.651 903.345C438.278 856.249 559.594 786.53 592.025 958.162C631.337 1175.09 697.86 1121.25 733.637 1109.62C773.521 1102.62 881.863 1024.18 965.366 1070.5C1039.6 1110.2 1207.39 1226.55 1271.03 1294.64" stroke="url(#paint43_linear_632_131)"/>
<path d="M-88.7969 425.879C103.841 465.943 165.885 478.496 193.114 654.34C148.935 755.566 66.4327 848.461 165.286 947.871C244.951 1051.19 298.613 963.093 360.363 912.731C428.436 867.698 547.683 798.158 580.062 963.846C619.144 1173.66 684.463 1119.78 720.409 1109.68C761.01 1104.83 870.352 1027.26 953.382 1071.57C1028.23 1110.01 1196.89 1223.51 1259.41 1292.32" stroke="url(#paint44_linear_632_131)"/>
<path d="M-89.8682 436.707C99.4234 474.172 161.178 486.819 188.641 659.012C146.647 758.628 66.95 850.86 163.308 948.929C238.141 1051.39 285.954 969.975 349.73 922.433C418.263 879.533 535.373 810.178 567.698 969.723C606.542 1172.19 670.615 1118.27 706.736 1109.75C748.079 1107.12 858.456 1030.45 940.995 1072.68C1016.48 1109.82 1186.03 1220.37 1247.4 1289.93" stroke="url(#paint45_linear_632_131)"/>
<path d="M-90.9746 447.887C94.8613 482.668 156.317 495.411 184.021 663.836C144.284 761.788 67.4838 853.336 161.265 950.021C231.108 1051.58 272.883 977.08 338.75 932.449C407.759 891.752 522.661 822.589 554.93 975.789C593.529 1170.67 656.316 1116.7 692.617 1109.82C734.726 1109.48 846.171 1033.74 928.205 1073.82C1004.35 1109.62 1174.81 1217.12 1235 1287.45" stroke="url(#paint46_linear_632_131)"/>
<path d="M-92.1152 459.419C90.156 491.433 151.303 504.275 179.256 668.812C141.848 765.049 68.0352 855.89 159.159 951.147C223.855 1051.79 259.4 984.409 327.425 942.783C396.924 904.358 509.549 835.392 541.76 982.048C580.106 1169.1 641.566 1115.09 678.054 1109.89C720.953 1111.92 833.499 1037.14 915.013 1075C991.829 1109.41 1163.25 1213.78 1222.2 1284.9" stroke="url(#paint47_linear_632_131)"/>
<path d="M-93.292 471.305C85.3056 500.465 146.134 513.41 174.344 673.94C139.335 768.409 68.6023 858.523 156.987 952.307C216.378 1052 245.503 991.962 315.752 953.432C385.756 917.349 496.035 848.585 528.186 988.498C566.272 1167.48 626.364 1113.43 663.044 1109.96C706.757 1114.43 820.439 1040.64 901.415 1076.22C978.929 1109.2 1151.32 1210.33 1209.02 1282.27" stroke="url(#paint48_linear_632_131)"/>
<path d="M-94.5029 483.543C80.312 509.766 140.813 522.816 169.288 679.22C136.749 771.869 69.1869 861.234 154.752 953.503C208.68 1052.22 231.195 999.74 303.734 964.397C374.258 930.725 482.12 862.171 514.21 995.139C552.027 1165.81 610.712 1111.71 647.589 1110.04C692.141 1117.02 806.992 1044.25 887.415 1077.47C965.646 1108.98 1139.05 1206.78 1195.44 1279.56" stroke="url(#paint49_linear_632_131)"/>
<path d="M-95.749 496.134C75.1743 519.334 135.339 532.493 164.085 684.653C134.088 775.429 69.788 864.023 152.451 954.733C200.761 1052.44 216.475 1007.74 291.369 975.678C362.428 944.487 467.805 876.148 499.832 1001.97C537.372 1164.1 594.609 1109.95 631.689 1110.11C677.104 1119.68 793.157 1047.96 873.011 1078.76C951.981 1108.75 1126.42 1203.13 1181.48 1276.77" stroke="url(#paint50_linear_632_131)"/>
<path d="M-97.0303 509.076C69.8924 529.17 129.71 542.44 158.737 690.236C131.353 779.087 70.4058 866.89 150.086 955.996C192.619 1052.67 201.342 1015.97 278.657 987.275C350.267 958.633 453.088 890.516 485.05 1008.99C522.307 1162.33 578.055 1108.14 615.343 1110.19C661.645 1122.41 778.935 1051.77 858.204 1080.08C937.932 1108.52 1113.44 1199.37 1167.12 1273.91" stroke="url(#paint51_linear_632_131)"/>
<path d="M-98.3457 522.373C64.4673 539.275 123.929 552.659 153.243 695.974C128.543 782.847 71.0411 869.836 147.658 957.295C184.256 1052.91 185.797 1024.42 265.6 999.189C337.775 973.167 437.971 905.276 469.866 1016.21C506.831 1160.53 561.05 1106.28 598.553 1110.27C645.766 1125.22 764.326 1055.68 842.993 1081.44C923.502 1108.28 1100.1 1195.52 1152.37 1270.96" stroke="url(#paint52_linear_632_131)"/>
<path d="M-99.6973 536.021C58.8972 549.648 117.994 563.149 147.602 701.863C125.658 786.706 71.692 872.859 145.163 958.628C175.67 1053.15 169.839 1033.09 252.195 1011.42C324.951 988.085 422.451 920.427 454.279 1023.62C490.944 1158.67 543.593 1104.37 581.316 1110.36C629.464 1128.1 749.328 1059.71 827.378 1082.84C908.687 1108.04 1086.41 1191.56 1137.23 1267.94" stroke="url(#paint53_linear_632_131)"/>
<path d="M-101.082 550.022C53.1848 560.288 111.907 573.91 141.818 707.903C122.7 790.664 72.3615 875.96 142.606 959.995C166.864 1053.4 153.47 1041.99 238.446 1023.96C311.796 1003.39 406.533 935.97 438.29 1031.22C474.649 1156.76 525.686 1102.41 563.636 1110.44C612.743 1131.06 733.944 1063.83 811.362 1084.27C893.492 1107.79 1072.37 1187.5 1121.7 1264.84" stroke="url(#paint54_linear_632_131)"/>
<path d="M-102.503 564.376C47.3272 571.196 105.665 584.942 135.886 714.096C119.666 794.722 73.0465 879.139 139.984 961.397C157.834 1053.66 136.687 1051.11 224.349 1036.82C298.31 1019.08 390.212 951.904 421.897 1039C457.941 1154.81 507.328 1100.4 545.509 1110.53C595.599 1134.09 718.172 1068.06 794.941 1085.74C877.912 1107.53 1057.97 1183.33 1105.78 1261.66" stroke="url(#paint55_linear_632_131)"/>
<path d="M-103.959 579.082C41.3256 582.372 99.2702 596.244 129.809 720.441C116.557 798.879 73.7481 882.396 137.296 962.833C148.583 1053.92 119.492 1060.46 209.905 1050C284.492 1035.15 373.49 968.229 405.102 1046.98C440.823 1152.8 488.518 1098.34 526.936 1110.62C578.034 1137.2 702.011 1072.39 778.116 1087.25C861.95 1107.27 1043.22 1179.07 1089.46 1258.41" stroke="url(#paint56_linear_632_131)"/>
<path d="M-105.449 594.147C35.1807 593.822 92.7224 607.824 123.586 726.944C113.375 803.143 74.4673 885.738 134.545 964.309C139.111 1054.19 101.886 1070.03 195.116 1063.5C270.343 1051.62 356.368 984.952 387.904 1055.16C423.295 1150.76 469.257 1096.24 507.919 1110.71C560.049 1140.39 685.465 1076.83 760.888 1088.79C845.605 1107.01 1028.11 1174.7 1072.76 1255.08" stroke="url(#paint57_linear_632_131)"/>
<path d="M-106.975 610.14C28.8917 606.115 86.021 620.25 117.218 734.175C110.117 808.081 75.2031 889.733 131.729 966.395C129.416 1055.05 83.8667 1080.41 179.981 1077.89C255.862 1069.04 338.845 1002.64 370.303 1064.11C405.357 1149.24 449.546 1094.66 488.456 1111.39C541.642 1144.23 668.53 1081.95 743.257 1090.95C828.878 1107.31 1012.66 1170.81 1055.66 1252.25" stroke="url(#paint58_linear_632_131)"/>
<path d="M-108.534 627.102C22.4595 619.294 79.167 633.565 110.705 742.175C106.786 813.736 75.9565 894.423 128.85 969.133C119.501 1056.53 65.436 1091.62 164.499 1093.21C241.051 1087.47 320.921 1021.34 352.301 1073.86C387.008 1148.29 429.384 1093.65 468.548 1112.68C522.814 1148.76 651.208 1087.79 725.223 1093.76C811.768 1108.23 996.844 1167.44 1038.18 1249.96" stroke="url(#paint59_linear_632_131)"/>
<path d="M-110.13 644.84C15.8822 633.163 72.1585 647.573 104.044 750.75C103.38 819.913 76.7254 899.614 125.905 972.328C109.362 1058.44 46.5918 1103.49 148.671 1109.27C225.907 1106.71 302.595 1040.85 333.894 1084.23C368.248 1147.72 408.77 1093.02 448.194 1114.4C503.565 1153.78 633.498 1094.16 706.784 1097.03C794.275 1109.56 980.677 1164.38 1020.3 1248.01" stroke="url(#paint60_linear_632_131)"/>
<path d="M-111.76 663.275C9.16173 647.645 64.9973 662.196 97.2387 759.821C99.8989 826.535 77.5119 905.228 122.896 975.902C99.0023 1060.7 27.3361 1115.92 132.496 1125.99C210.433 1126.68 283.869 1061.1 315.086 1095.13C349.078 1147.44 387.705 1092.68 427.396 1116.47C483.894 1159.23 615.401 1100.98 687.943 1100.68C776.399 1111.23 964.157 1161.57 1002.03 1246.33" stroke="url(#paint61_linear_632_131)"/>
<path d="M-113.425 682.365C2.29709 662.697 57.6825 677.393 90.2874 769.346C96.3435 833.558 78.315 911.221 119.822 979.812C88.4206 1063.26 7.66778 1128.88 115.975 1143.33C194.627 1147.33 264.742 1082.04 295.874 1106.53C329.498 1147.42 366.19 1092.59 406.152 1118.84C463.803 1165.05 596.917 1108.2 668.698 1104.67C758.141 1113.2 947.284 1158.96 983.367 1244.87" stroke="url(#paint62_linear_632_131)"/>
<path d="M-115.124 702.084C-4.71072 678.293 50.2151 693.137 83.191 779.301C92.7143 840.958 79.1356 917.57 116.685 984.033C77.6177 1066.11 -12.4121 1142.34 99.1086 1161.27C178.491 1168.65 245.215 1103.65 276.261 1118.39C309.508 1147.62 344.224 1092.73 384.463 1121.49C443.291 1171.22 578.045 1115.8 649.05 1108.97C739.5 1115.44 930.058 1156.52 964.316 1243.61" stroke="url(#paint63_linear_632_131)"/>
<path d="M-116.859 722.419C-11.8637 694.421 42.5931 709.416 75.9477 789.671C89.0093 848.721 79.9718 924.26 113.482 988.553C66.5918 1069.23 -32.9055 1156.28 81.8944 1179.78C162.022 1190.61 225.285 1125.92 256.243 1130.71C289.106 1148.04 321.806 1093.08 362.327 1124.4C422.356 1177.73 558.785 1123.77 628.997 1113.57C720.476 1117.93 912.476 1154.24 944.872 1242.54" stroke="url(#paint64_linear_632_131)"/>
<path d="M-118.629 743.361C-19.1598 711.071 34.8186 726.22 68.5594 800.448C85.2306 856.838 80.8257 931.283 110.216 993.361C55.3447 1072.61 -53.8105 1170.71 64.3347 1198.86C145.222 1213.22 204.955 1148.83 235.824 1143.48C268.294 1148.67 298.937 1093.64 339.747 1127.57C401.001 1184.57 539.138 1132.1 608.542 1118.46C701.069 1120.67 894.542 1152.12 925.038 1241.65" stroke="url(#paint65_linear_632_131)"/>
<path d="M-120.434 764.908C-26.6001 728.242 26.8904 743.547 61.0252 811.628C81.377 865.307 81.696 938.635 106.884 998.455C43.8756 1076.25 -75.128 1185.61 46.4284 1218.51C128.091 1236.46 184.224 1172.38 215.001 1156.68C247.072 1149.5 275.617 1094.4 316.722 1131C379.225 1191.74 519.104 1140.79 587.684 1123.64C681.28 1123.66 876.253 1150.14 904.812 1240.92" stroke="url(#paint66_linear_632_131)"/>
<path d="M-122.272 787.062C-34.1835 745.934 18.8097 761.4 53.3459 823.215C77.4496 874.129 82.584 946.32 103.489 1003.84C32.1855 1080.15 -96.8571 1200.99 28.1765 1238.73C110.629 1260.34 163.093 1196.58 193.777 1170.34C225.44 1150.54 251.847 1095.37 293.252 1134.68C357.028 1199.23 498.682 1149.83 566.422 1129.11C661.108 1126.9 857.612 1148.32 884.196 1240.38" stroke="url(#paint67_linear_632_131)"/>
<path d="M-124.146 809.825C-41.9111 764.152 10.5753 779.781 45.5207 835.212C73.4475 883.309 83.4885 954.341 100.03 1009.51C20.2732 1084.31 -118.999 1216.85 9.578 1259.53C92.836 1284.87 141.561 1221.43 172.149 1184.44C203.397 1151.79 227.626 1096.54 269.336 1138.62C334.41 1207.06 477.873 1159.23 544.757 1134.88C640.554 1130.38 838.617 1146.65 863.189 1240.01" stroke="url(#paint68_linear_632_131)"/>
<path d="M-126.056 833.207C-49.7829 782.904 2.18734 798.698 37.5495 847.626C69.3706 892.854 84.4096 962.705 96.5052 1015.49C8.13884 1088.75 -141.553 1233.2 -9.36705 1280.9C74.711 1310.04 119.627 1246.94 150.119 1199C180.944 1153.25 202.953 1097.93 244.975 1142.83C311.37 1215.23 456.676 1169.01 522.688 1140.94C619.616 1134.13 819.267 1145.15 841.79 1239.83" stroke="url(#paint69_linear_632_131)"/>
</g>
<g filter="url(#filter1_bd_632_131)">
<rect x="580" y="155" width="760" height="770" rx="30" fill="white" fill-opacity="0.02" shape-rendering="crispEdges"/>
</g>
</g>
<defs>
<filter id="filter0_d_632_131" x="-132.309" y="-240.332" width="2449.5" height="1560.83" filterUnits="userSpaceOnUse" color-interpolation-filters="sRGB">
<feFlood flood-opacity="0" result="BackgroundImageFix"/>
<feColorMatrix in="SourceAlpha" type="matrix" values="0 0 0 0 0 0 0 0 0 0 0 0 0 0 0 0 0 0 127 0" result="hardAlpha"/>
<feOffset dy="4"/>
<feGaussianBlur stdDeviation="2"/>
<feComposite in2="hardAlpha" operator="out"/>
<feColorMatrix type="matrix" values="0 0 0 0 0 0 0 0 0 0 0 0 0 0 0 0 0 0 0.25 0"/>
<feBlend mode="normal" in2="BackgroundImageFix" result="effect1_dropShadow_632_131"/>
<feBlend mode="normal" in="SourceGraphic" in2="effect1_dropShadow_632_131" result="shape"/>
</filter>
<filter id="filter1_bd_632_131" x="530" y="105" width="860" height="870" filterUnits="userSpaceOnUse" color-interpolation-filters="sRGB">
<feFlood flood-opacity="0" result="BackgroundImageFix"/>
<feGaussianBlur in="BackgroundImageFix" stdDeviation="25"/>
<feComposite in2="SourceAlpha" operator="in" result="effect1_backgroundBlur_632_131"/>
<feColorMatrix in="SourceAlpha" type="matrix" values="0 0 0 0 0 0 0 0 0 0 0 0 0 0 0 0 0 0 127 0" result="hardAlpha"/>
<feOffset dy="4"/>
<feGaussianBlur stdDeviation="2"/>
<feComposite in2="hardAlpha" operator="out"/>
<feColorMatrix type="matrix" values="0 0 0 0 0 0 0 0 0 0 0 0 0 0 0 0 0 0 0.25 0"/>
<feBlend mode="normal" in2="effect1_backgroundBlur_632_131" result="effect2_dropShadow_632_131"/>
<feBlend mode="normal" in="SourceGraphic" in2="effect2_dropShadow_632_131" result="shape"/>
</filter>
<linearGradient id="paint0_linear_632_131" x1="999" y1="1080" x2="1008.49" y2="-36.6062" gradientUnits="userSpaceOnUse">
<stop stop-color="#292643"/>
<stop offset="0.81555" stop-color="#44436F"/>
</linearGradient>
<linearGradient id="paint1_linear_632_131" x1="1644.84" y1="720.562" x2="1723.85" y2="-181.905" gradientUnits="userSpaceOnUse">
<stop stop-color="#FFAE52"/>
<stop offset="0.485" stop-color="#FC8600"/>
<stop offset="1" stop-color="#F26518"/>
</linearGradient>
<linearGradient id="paint2_linear_632_131" x1="1542.5" y1="690.797" x2="1607.6" y2="-52.7947" gradientUnits="userSpaceOnUse">
<stop stop-color="#FFAE52"/>
<stop offset="0.485" stop-color="#FC8600"/>
<stop offset="1" stop-color="#F26518"/>
</linearGradient>
<linearGradient id="paint3_linear_632_131" x1="1644.84" y1="720.562" x2="1723.85" y2="-181.905" gradientUnits="userSpaceOnUse">
<stop stop-color="#FFAE52"/>
<stop offset="0.485" stop-color="#FC8600"/>
<stop offset="1" stop-color="#F26518"/>
</linearGradient>
<linearGradient id="paint4_linear_632_131" x1="1635.52" y1="717.877" x2="1713.28" y2="-170.369" gradientUnits="userSpaceOnUse">
<stop stop-color="#FFAE52"/>
<stop offset="0.485" stop-color="#FC8600"/>
<stop offset="1" stop-color="#F26518"/>
</linearGradient>
<linearGradient id="paint5_linear_632_131" x1="1626.43" y1="715.265" x2="1702.98" y2="-159.1" gradientUnits="userSpaceOnUse">
<stop stop-color="#FFAE52"/>
<stop offset="0.485" stop-color="#FC8600"/>
<stop offset="1" stop-color="#F26518"/>
</linearGradient>
<linearGradient id="paint6_linear_632_131" x1="1617.59" y1="712.717" x2="1692.94" y2="-148.098" gradientUnits="userSpaceOnUse">
<stop stop-color="#FFAE52"/>
<stop offset="0.485" stop-color="#FC8600"/>
<stop offset="1" stop-color="#F26518"/>
</linearGradient>
<linearGradient id="paint7_linear_632_131" x1="1608.98" y1="710.232" x2="1683.18" y2="-137.365" gradientUnits="userSpaceOnUse">
<stop stop-color="#FFAE52"/>
<stop offset="0.485" stop-color="#FC8600"/>
<stop offset="1" stop-color="#F26518"/>
</linearGradient>
<linearGradient id="paint8_linear_632_131" x1="1600.62" y1="707.814" x2="1673.69" y2="-126.899" gradientUnits="userSpaceOnUse">
<stop stop-color="#FFAE52"/>
<stop offset="0.485" stop-color="#FC8600"/>
<stop offset="1" stop-color="#F26518"/>
</linearGradient>
<linearGradient id="paint9_linear_632_131" x1="1592.5" y1="705.46" x2="1664.48" y2="-116.7" gradientUnits="userSpaceOnUse">
<stop stop-color="#FFAE52"/>
<stop offset="0.485" stop-color="#FC8600"/>
<stop offset="1" stop-color="#F26518"/>
</linearGradient>
<linearGradient id="paint10_linear_632_131" x1="1584.62" y1="703.17" x2="1655.53" y2="-106.769" gradientUnits="userSpaceOnUse">
<stop stop-color="#FFAE52"/>
<stop offset="0.485" stop-color="#FC8600"/>
<stop offset="1" stop-color="#F26518"/>
</linearGradient>
<linearGradient id="paint11_linear_632_131" x1="1576.99" y1="700.945" x2="1646.85" y2="-97.1054" gradientUnits="userSpaceOnUse">
<stop stop-color="#FFAE52"/>
<stop offset="0.485" stop-color="#FC8600"/>
<stop offset="1" stop-color="#F26518"/>
</linearGradient>
<linearGradient id="paint12_linear_632_131" x1="1569.6" y1="698.786" x2="1638.45" y2="-87.7089" gradientUnits="userSpaceOnUse">
<stop stop-color="#FFAE52"/>
<stop offset="0.485" stop-color="#FC8600"/>
<stop offset="1" stop-color="#F26518"/>
</linearGradient>
<linearGradient id="paint13_linear_632_131" x1="1562.46" y1="696.691" x2="1630.33" y2="-78.5794" gradientUnits="userSpaceOnUse">
<stop stop-color="#FFAE52"/>
<stop offset="0.485" stop-color="#FC8600"/>
<stop offset="1" stop-color="#F26518"/>
</linearGradient>
<linearGradient id="paint14_linear_632_131" x1="1555.56" y1="694.661" x2="1622.47" y2="-69.7173" gradientUnits="userSpaceOnUse">
<stop stop-color="#FFAE52"/>
<stop offset="0.485" stop-color="#FC8600"/>
<stop offset="1" stop-color="#F26518"/>
</linearGradient>
<linearGradient id="paint15_linear_632_131" x1="1548.91" y1="692.696" x2="1614.9" y2="-61.1226" gradientUnits="userSpaceOnUse">
<stop stop-color="#FFAE52"/>
<stop offset="0.485" stop-color="#FC8600"/>
<stop offset="1" stop-color="#F26518"/>
</linearGradient>
<linearGradient id="paint16_linear_632_131" x1="1542.5" y1="690.797" x2="1607.6" y2="-52.7947" gradientUnits="userSpaceOnUse">
<stop stop-color="#FFAE52"/>
<stop offset="0.485" stop-color="#FC8600"/>
<stop offset="1" stop-color="#F26518"/>
</linearGradient>
<linearGradient id="paint17_linear_632_131" x1="1536.34" y1="688.962" x2="1600.57" y2="-44.7345" gradientUnits="userSpaceOnUse">
<stop stop-color="#FFAE52"/>
<stop offset="0.485" stop-color="#FC8600"/>
<stop offset="1" stop-color="#F26518"/>
</linearGradient>
<linearGradient id="paint18_linear_632_131" x1="1530.43" y1="687.193" x2="1593.83" y2="-36.9409" gradientUnits="userSpaceOnUse">
<stop stop-color="#FFAE52"/>
<stop offset="0.485" stop-color="#FC8600"/>
<stop offset="1" stop-color="#F26518"/>
</linearGradient>
<linearGradient id="paint19_linear_632_131" x1="1524.77" y1="685.489" x2="1587.36" y2="-29.4139" gradientUnits="userSpaceOnUse">
<stop stop-color="#FFAE52"/>
<stop offset="0.485" stop-color="#FC8600"/>
<stop offset="1" stop-color="#F26518"/>
</linearGradient>
<linearGradient id="paint20_linear_632_131" x1="1519.37" y1="683.85" x2="1581.17" y2="-22.1538" gradientUnits="userSpaceOnUse">
<stop stop-color="#FFAE52"/>
<stop offset="0.485" stop-color="#FC8600"/>
<stop offset="1" stop-color="#F26518"/>
</linearGradient>
<linearGradient id="paint21_linear_632_131" x1="1514.21" y1="682.278" x2="1575.27" y2="-15.1601" gradientUnits="userSpaceOnUse">
<stop stop-color="#FFAE52"/>
<stop offset="0.485" stop-color="#FC8600"/>
<stop offset="1" stop-color="#F26518"/>
</linearGradient>
<linearGradient id="paint22_linear_632_131" x1="1511.17" y1="680.934" x2="1571.51" y2="-8.27014" gradientUnits="userSpaceOnUse">
<stop stop-color="#FFAE52"/>
<stop offset="0.485" stop-color="#FC8600"/>
<stop offset="1" stop-color="#F26518"/>
</linearGradient>
<linearGradient id="paint23_linear_632_131" x1="1515.49" y1="680.277" x2="1575.13" y2="-1.02511" gradientUnits="userSpaceOnUse">
<stop stop-color="#FFAE52"/>
<stop offset="0.485" stop-color="#FC8600"/>
<stop offset="1" stop-color="#F26518"/>
</linearGradient>
<linearGradient id="paint24_linear_632_131" x1="1519.68" y1="679.653" x2="1578.67" y2="5.92108" gradientUnits="userSpaceOnUse">
<stop stop-color="#FFAE52"/>
<stop offset="0.485" stop-color="#FC8600"/>
<stop offset="1" stop-color="#F26518"/>
</linearGradient>
<linearGradient id="paint25_linear_632_131" x1="1523.76" y1="679.063" x2="1582.11" y2="12.568" gradientUnits="userSpaceOnUse">
<stop stop-color="#FFAE52"/>
<stop offset="0.485" stop-color="#FC8600"/>
<stop offset="1" stop-color="#F26518"/>
</linearGradient>
<linearGradient id="paint26_linear_632_131" x1="1527.61" y1="679.852" x2="1585.47" y2="18.9163" gradientUnits="userSpaceOnUse">
<stop stop-color="#FFAE52"/>
<stop offset="0.485" stop-color="#FC8600"/>
<stop offset="1" stop-color="#F26518"/>
</linearGradient>
<linearGradient id="paint27_linear_632_131" x1="1530.61" y1="688.991" x2="1588.74" y2="24.9656" gradientUnits="userSpaceOnUse">
<stop stop-color="#FFAE52"/>
<stop offset="0.485" stop-color="#FC8600"/>
<stop offset="1" stop-color="#F26518"/>
</linearGradient>
<linearGradient id="paint28_linear_632_131" x1="1533.54" y1="697.676" x2="1591.92" y2="30.7162" gradientUnits="userSpaceOnUse">
<stop stop-color="#FFAE52"/>
<stop offset="0.485" stop-color="#FC8600"/>
<stop offset="1" stop-color="#F26518"/>
</linearGradient>
<linearGradient id="paint29_linear_632_131" x1="1536.4" y1="705.908" x2="1595.03" y2="36.1681" gradientUnits="userSpaceOnUse">
<stop stop-color="#FFAE52"/>
<stop offset="0.485" stop-color="#FC8600"/>
<stop offset="1" stop-color="#F26518"/>
</linearGradient>
<linearGradient id="paint30_linear_632_131" x1="1539.19" y1="713.687" x2="1598.06" y2="41.3222" gradientUnits="userSpaceOnUse">
<stop stop-color="#FFAE52"/>
<stop offset="0.485" stop-color="#FC8600"/>
<stop offset="1" stop-color="#F26518"/>
</linearGradient>
<linearGradient id="paint31_linear_632_131" x1="1541.93" y1="721.013" x2="1601.01" y2="46.1788" gradientUnits="userSpaceOnUse">
<stop stop-color="#FFAE52"/>
<stop offset="0.485" stop-color="#FC8600"/>
<stop offset="1" stop-color="#F26518"/>
</linearGradient>
<linearGradient id="paint32_linear_632_131" x1="1544.61" y1="727.885" x2="1603.89" y2="50.7373" gradientUnits="userSpaceOnUse">
<stop stop-color="#FFAE52"/>
<stop offset="0.485" stop-color="#FC8600"/>
<stop offset="1" stop-color="#F26518"/>
</linearGradient>
<linearGradient id="paint33_linear_632_131" x1="639" y1="337" x2="639" y2="1312" gradientUnits="userSpaceOnUse">
<stop stop-color="#FFAE52"/>
<stop offset="0.53" stop-color="#FC8600"/>
<stop offset="1" stop-color="#F26518"/>
</linearGradient>
<linearGradient id="paint34_linear_632_131" x1="346" y1="822" x2="346" y2="1312" gradientUnits="userSpaceOnUse">
<stop stop-color="#FFAE52"/>
<stop offset="0.53" stop-color="#FC8600"/>
<stop offset="1" stop-color="#F26518"/>
</linearGradient>
<linearGradient id="paint35_linear_632_131" x1="634.589" y1="344.301" x2="634.589" y2="1310.38" gradientUnits="userSpaceOnUse">
<stop stop-color="#FFAE52"/>
<stop offset="0.545" stop-color="#FC8600"/>
<stop offset="1" stop-color="#F26518"/>
</linearGradient>
<linearGradient id="paint36_linear_632_131" x1="629.965" y1="351.955" x2="629.965" y2="1308.69" gradientUnits="userSpaceOnUse">
<stop stop-color="#FFAE52"/>
<stop offset="0.545" stop-color="#FC8600"/>
<stop offset="1" stop-color="#F26518"/>
</linearGradient>
<linearGradient id="paint37_linear_632_131" x1="625.129" y1="359.961" x2="625.129" y2="1306.92" gradientUnits="userSpaceOnUse">
<stop stop-color="#FFAE52"/>
<stop offset="0.545" stop-color="#FC8600"/>
<stop offset="1" stop-color="#F26518"/>
</linearGradient>
<linearGradient id="paint38_linear_632_131" x1="620.079" y1="368.32" x2="620.079" y2="1305.07" gradientUnits="userSpaceOnUse">
<stop stop-color="#FFAE52"/>
<stop offset="0.545" stop-color="#FC8600"/>
<stop offset="1" stop-color="#F26518"/>
</linearGradient>
<linearGradient id="paint39_linear_632_131" x1="614.816" y1="377.032" x2="614.816" y2="1303.14" gradientUnits="userSpaceOnUse">
<stop stop-color="#FFAE52"/>
<stop offset="0.545" stop-color="#FC8600"/>
<stop offset="1" stop-color="#F26518"/>
</linearGradient>
<linearGradient id="paint40_linear_632_131" x1="609.34" y1="386.096" x2="609.34" y2="1301.13" gradientUnits="userSpaceOnUse">
<stop stop-color="#FFAE52"/>
<stop offset="0.545" stop-color="#FC8600"/>
<stop offset="1" stop-color="#F26518"/>
</linearGradient>
<linearGradient id="paint41_linear_632_131" x1="603.651" y1="395.513" x2="603.651" y2="1299.05" gradientUnits="userSpaceOnUse">
<stop stop-color="#FFAE52"/>
<stop offset="0.545" stop-color="#FC8600"/>
<stop offset="1" stop-color="#F26518"/>
</linearGradient>
<linearGradient id="paint42_linear_632_131" x1="597.749" y1="405.282" x2="597.749" y2="1296.88" gradientUnits="userSpaceOnUse">
<stop stop-color="#FFAE52"/>
<stop offset="0.545" stop-color="#FC8600"/>
<stop offset="1" stop-color="#F26518"/>
</linearGradient>
<linearGradient id="paint43_linear_632_131" x1="591.634" y1="415.404" x2="591.634" y2="1294.64" gradientUnits="userSpaceOnUse">
<stop stop-color="#FFAE52"/>
<stop offset="0.545" stop-color="#FC8600"/>
<stop offset="1" stop-color="#F26518"/>
</linearGradient>
<linearGradient id="paint44_linear_632_131" x1="585.305" y1="425.879" x2="585.305" y2="1292.32" gradientUnits="userSpaceOnUse">
<stop stop-color="#FFAE52"/>
<stop offset="0.545" stop-color="#FC8600"/>
<stop offset="1" stop-color="#F26518"/>
</linearGradient>
<linearGradient id="paint45_linear_632_131" x1="578.765" y1="436.707" x2="578.765" y2="1289.93" gradientUnits="userSpaceOnUse">
<stop stop-color="#FFAE52"/>
<stop offset="0.545" stop-color="#FC8600"/>
<stop offset="1" stop-color="#F26518"/>
</linearGradient>
<linearGradient id="paint46_linear_632_131" x1="572.01" y1="447.887" x2="572.01" y2="1287.45" gradientUnits="userSpaceOnUse">
<stop stop-color="#FFAE52"/>
<stop offset="0.545" stop-color="#FC8600"/>
<stop offset="1" stop-color="#F26518"/>
</linearGradient>
<linearGradient id="paint47_linear_632_131" x1="565.044" y1="459.419" x2="565.044" y2="1284.9" gradientUnits="userSpaceOnUse">
<stop stop-color="#FFAE52"/>
<stop offset="0.545" stop-color="#FC8600"/>
<stop offset="1" stop-color="#F26518"/>
</linearGradient>
<linearGradient id="paint48_linear_632_131" x1="557.863" y1="471.305" x2="557.863" y2="1282.27" gradientUnits="userSpaceOnUse">
<stop stop-color="#FFAE52"/>
<stop offset="0.545" stop-color="#FC8600"/>
<stop offset="1" stop-color="#F26518"/>
</linearGradient>
<linearGradient id="paint49_linear_632_131" x1="550.47" y1="483.543" x2="550.47" y2="1279.56" gradientUnits="userSpaceOnUse">
<stop stop-color="#FFAE52"/>
<stop offset="0.545" stop-color="#FC8600"/>
<stop offset="1" stop-color="#F26518"/>
</linearGradient>
<linearGradient id="paint50_linear_632_131" x1="542.864" y1="496.134" x2="542.864" y2="1276.77" gradientUnits="userSpaceOnUse">
<stop stop-color="#FFAE52"/>
<stop offset="0.545" stop-color="#FC8600"/>
<stop offset="1" stop-color="#F26518"/>
</linearGradient>
<linearGradient id="paint51_linear_632_131" x1="535.044" y1="509.076" x2="535.044" y2="1273.91" gradientUnits="userSpaceOnUse">
<stop stop-color="#FFAE52"/>
<stop offset="0.545" stop-color="#FC8600"/>
<stop offset="1" stop-color="#F26518"/>
</linearGradient>
<linearGradient id="paint52_linear_632_131" x1="527.012" y1="522.373" x2="527.012" y2="1270.96" gradientUnits="userSpaceOnUse">
<stop stop-color="#FFAE52"/>
<stop offset="0.545" stop-color="#FC8600"/>
<stop offset="1" stop-color="#F26518"/>
</linearGradient>
<linearGradient id="paint53_linear_632_131" x1="518.766" y1="536.021" x2="518.766" y2="1267.94" gradientUnits="userSpaceOnUse">
<stop stop-color="#FFAE52"/>
<stop offset="0.545" stop-color="#FC8600"/>
<stop offset="1" stop-color="#F26518"/>
</linearGradient>
<linearGradient id="paint54_linear_632_131" x1="510.309" y1="550.022" x2="510.309" y2="1264.84" gradientUnits="userSpaceOnUse">
<stop stop-color="#FFAE52"/>
<stop offset="0.545" stop-color="#FC8600"/>
<stop offset="1" stop-color="#F26518"/>
</linearGradient>
<linearGradient id="paint55_linear_632_131" x1="501.637" y1="564.376" x2="501.637" y2="1261.66" gradientUnits="userSpaceOnUse">
<stop stop-color="#FFAE52"/>
<stop offset="0.545" stop-color="#FC8600"/>
<stop offset="1" stop-color="#F26518"/>
</linearGradient>
<linearGradient id="paint56_linear_632_131" x1="492.752" y1="579.082" x2="492.752" y2="1258.41" gradientUnits="userSpaceOnUse">
<stop stop-color="#FFAE52"/>
<stop offset="0.545" stop-color="#FC8600"/>
<stop offset="1" stop-color="#F26518"/>
</linearGradient>
<linearGradient id="paint57_linear_632_131" x1="483.654" y1="594.142" x2="483.654" y2="1255.08" gradientUnits="userSpaceOnUse">
<stop stop-color="#FFAE52"/>
<stop offset="0.545" stop-color="#FC8600"/>
<stop offset="1" stop-color="#F26518"/>
</linearGradient>
<linearGradient id="paint58_linear_632_131" x1="474.344" y1="609.554" x2="474.344" y2="1252.25" gradientUnits="userSpaceOnUse">
<stop stop-color="#FFAE52"/>
<stop offset="0.545" stop-color="#FC8600"/>
<stop offset="1" stop-color="#F26518"/>
</linearGradient>
<linearGradient id="paint59_linear_632_131" x1="464.821" y1="625.318" x2="464.821" y2="1249.96" gradientUnits="userSpaceOnUse">
<stop stop-color="#FFAE52"/>
<stop offset="0.545" stop-color="#FC8600"/>
<stop offset="1" stop-color="#F26518"/>
</linearGradient>
<linearGradient id="paint60_linear_632_131" x1="455.083" y1="641.435" x2="455.083" y2="1248.01" gradientUnits="userSpaceOnUse">
<stop stop-color="#FFAE52"/>
<stop offset="0.545" stop-color="#FC8600"/>
<stop offset="1" stop-color="#F26518"/>
</linearGradient>
<linearGradient id="paint61_linear_632_131" x1="445.134" y1="657.904" x2="445.134" y2="1246.33" gradientUnits="userSpaceOnUse">
<stop stop-color="#FFAE52"/>
<stop offset="0.545" stop-color="#FC8600"/>
<stop offset="1" stop-color="#F26518"/>
</linearGradient>
<linearGradient id="paint62_linear_632_131" x1="434.971" y1="674.727" x2="434.971" y2="1244.87" gradientUnits="userSpaceOnUse">
<stop stop-color="#FFAE52"/>
<stop offset="0.545" stop-color="#FC8600"/>
<stop offset="1" stop-color="#F26518"/>
</linearGradient>
<linearGradient id="paint63_linear_632_131" x1="424.596" y1="691.901" x2="424.596" y2="1243.61" gradientUnits="userSpaceOnUse">
<stop stop-color="#FFAE52"/>
<stop offset="0.545" stop-color="#FC8600"/>
<stop offset="1" stop-color="#F26518"/>
</linearGradient>
<linearGradient id="paint64_linear_632_131" x1="414.006" y1="709.43" x2="414.006" y2="1242.54" gradientUnits="userSpaceOnUse">
<stop stop-color="#FFAE52"/>
<stop offset="0.545" stop-color="#FC8600"/>
<stop offset="1" stop-color="#F26518"/>
</linearGradient>
<linearGradient id="paint65_linear_632_131" x1="403.204" y1="727.31" x2="403.204" y2="1241.65" gradientUnits="userSpaceOnUse">
<stop stop-color="#FFAE52"/>
<stop offset="0.545" stop-color="#FC8600"/>
<stop offset="1" stop-color="#F26518"/>
</linearGradient>
<linearGradient id="paint66_linear_632_131" x1="392.189" y1="745.542" x2="392.189" y2="1240.92" gradientUnits="userSpaceOnUse">
<stop stop-color="#FFAE52"/>
<stop offset="0.545" stop-color="#FC8600"/>
<stop offset="1" stop-color="#F26518"/>
</linearGradient>
<linearGradient id="paint67_linear_632_131" x1="380.962" y1="764.128" x2="380.962" y2="1243.13" gradientUnits="userSpaceOnUse">
<stop stop-color="#FFAE52"/>
<stop offset="0.545" stop-color="#FC8600"/>
<stop offset="1" stop-color="#F26518"/>
</linearGradient>
<linearGradient id="paint68_linear_632_131" x1="369.521" y1="783.066" x2="369.521" y2="1265.34" gradientUnits="userSpaceOnUse">
<stop stop-color="#FFAE52"/>
<stop offset="0.545" stop-color="#FC8600"/>
<stop offset="1" stop-color="#F26518"/>
</linearGradient>
<linearGradient id="paint69_linear_632_131" x1="357.867" y1="802.356" x2="357.867" y2="1288.3" gradientUnits="userSpaceOnUse">
<stop stop-color="#FFAE52"/>
<stop offset="0.545" stop-color="#FC8600"/>
<stop offset="1" stop-color="#F26518"/>
</linearGradient>
<clipPath id="clip0_632_131">
<rect width="1920" height="1080" fill="white"/>
</clipPath>
</defs>
</svg>
